<svg version="1" xmlns="http://www.w3.org/2000/svg" width="682.667" height="682.667" viewBox="0 0 512.000000 512.000000"><path d="M244.5 14c-13.9 1-36.1 4.4-49 7.7-43.2 10.8-87 35.9-123.2 70.7-12 11.5-17.3 18.1-29.9 37.1-15.8 23.7-26.9 50.1-33 78.1-2.8 13.1-5.8 41.4-5.1 48.9 1 11.7 6.3 37.4 10.3 49.8 1.4 4.4 2.7 8.6 2.9 9.6.1.9 1.2 3.6 2.3 6.1 1.2 2.5 3.9 8.8 6.2 14.1 8.1 19.1 24.5 46.2 40.2 66.6 6.8 8.8 33 35.3 35 35.3.4 0-3-3.5-7.5-7.7-12.4-11.9-12.7-12.2-12-13.9.3-.9 1.2-1.3 2.1-.9.9.3 1.3.3.9-.1-1.1-1.1 5.6-5.6 7.5-5 1 .2 1.8 0 1.8-.6s.7-.8 1.5-.4c1.6.6 1.7.1.6-2.9-.8-1.9-.8-1.9-1.5.3-.5 1.6-1.3 2.1-2.5 1.7-1.9-.6-9.1 2-9.1 3.3 0 .4-1.1 1.2-2.4 1.8-2.8 1.3-4.8.1-3.8-2.4.4-1.1.1-1.4-1.1-.9-1.2.5-2.8-.8-5.7-4.8-2.2-2.9-4.4-5.6-5-6-.5-.3-1-1.1-1-1.6 0-.6.5-.7 1.1-.3.7.4.6-.3-.2-1.7-.7-1.4-1.4-1.9-1.6-1.2-.6 1.6-3.3-.9-3.3-2.9.1-.9.4-.9 1.3.3.7.9 1.7 1.4 2.4 1.2.6-.2 2.1 1.4 3.3 3.6 1.4 2.4 2.8 3.7 3.6 3.4.9-.3 1.4.3 1.4 1.8 0 1.2.3 2 .6 1.6.9-.9 3.6 2.1 2.9 3.3-.3.5-.1 1 .5 1s1.4-.9 1.8-2c.5-1.4 1.1-1.7 2.2-.9 1.3.8 1.2 1.1-.5 2.4-1.9 1.5-1.9 1.6-.1 3.3 1.7 1.5 1.8 1.5 1.3 0-.7-2 .3-3.1 1.7-1.9.7.6 1.1.2 1.2-1.4.1-1.5-.5-2.5-1.6-2.8-1.7-.4-3.5-5.7-1.9-5.7.5 0 .9.6.9 1.4 0 .8.5 1.8 1.2 2.2.8.5.9.2.5-1.1-.4-.9-.2-2.4.4-3.1.9-1.1.6-1.6-1.1-2.2-2-.7-2.1-1-.7-1.5 3.1-1.2 6.3 1.2 3.7 2.8-.5.3-.8 2-.6 3.8.3 2.8.7 3.2 3 2.9 2-.2 2.4.1 2 1.3-.5 1.2-.2 1.4 1.7.7 2.8-1.1 3.7-3.3 1.2-3-3.3.2-5.3-.2-5.3-1.2 0-.5.6-.9 1.3-.7.7.1 1.1-.7 1-2.1-.3-1.9 0-2.1 1.6-1.3 2.2 1.2 9.1.3 9.2-1.3 0-.6.4-.1 1 1.2.6 1.7.4 3.2-.7 5.4-1.2 2.4-1.3 3.3-.3 4.2.9.8 1.1.7.6-.6-.3-1-.1-2.1.6-2.5.7-.5 1.7-1.8 2.4-3 1-1.7 1-2.3 0-2.6-.7-.3-.1-.6 1.2-.6 1.7-.1 2.2.3 1.7 1.4-.8 2.3 1.2 1.8 2.5-.6.8-1.6.8-2.3-.1-2.9-.8-.5-.5-.9.9-1.3 1.5-.3 2.1-1.3 2.1-3.1 0-1.5.7-2.9 1.6-3.3.8-.3 1.3-1.2 1-1.9-.6-1.6 1.3-6.4 2.6-6.4s.9 1.7-.7 3.4c-2.2 2.2-1.8 2.8 1.3 2.1 2.4-.5 3.2 0 6.2 4 1.8 2.5 3.7 4.6 4.2 4.6.4.1 1.3.3 1.8.4.6.1 1.7.3 2.6.4 1.1.1 1.3.7.9 2.2-.5 1.4-.2 2.5.6 3 1 .6 1.1.9.2.9-.7 0-1.3.7-1.3 1.5s-.5 1.5-1.1 1.5c-.6 0-.8-.7-.5-1.6.4-1.1.2-1.5-.8-1.1-.8.3-2-.1-2.6-.9-.7-.8-1.8-1.4-2.4-1.3-.7 0-.6.2.1.6 2 .8 1.5 2.3-.7 2.3-1.1 0-2-.5-2-1.2 0-1.5-1.3-.1-1.6 1.7-.2 1.6 2.7 3 3.5 1.6.7-1.1 2.9-1 4.9.3.8.5 1 1.6.6 2.9-.6 1.9-.5 2 1 .8 1.3-1.1 1.6-1.1 1.6 0 .1.9.8.6 1.9-.8 1.1-1.3 2.3-2.3 2.9-2.3.5 0 1-2.8 1.1-6.3.1-3.4 1-8.5 2-11.2 1.1-2.8 2.4-8.4 3-12.5 1-6.7.9-8.7-1.3-19.5-1.3-6.6-3.4-15.6-4.6-20-2.8-10-3-27.6-.4-33.1.9-1.9 1.9-3.4 2.3-3.4.4 0 1.5-1.5 2.6-3.3 1-1.7 2.1-3.4 2.4-3.7 1.8-1.5 9.6-14.7 11.9-20.2 4.5-10.6 7.7-14.7 11.8-14.8 4.6 0 23.9 9.6 27.7 13.8 1.1 1.2 1.7 5.2 2.2 14.2l.7 12.5-3.9 6c-2.2 3.3-4.8 8.7-5.8 12-1.1 3.3-2.6 6.8-3.3 7.7-2.3 2.8-.8 6.9 9.4 25.6 6.6 12.1 9.4 18.1 9 19.6-.3 1.1-2.4 4.1-4.6 6.6-7.4 8.3-10.1 12-6.1 8.5 2.9-2.5 8.2-3 7.3-.6-.5 1.4-.3 1.4 1.1.3.9-.8 2.2-1 2.8-.6.7.4.9.3.5-.4-.3-.6 0-1.7.8-2.4 1.2-1.3 1.1-1.6-.6-2.7-1.9-1.2-2-1.1-1.6.7.5 1.7 0 2.1-2.8 2.4-4.2.5-4.2-.1-.4-3.5 3.3-3 6.5-3.5 7.4-1.2.3.8 1.2 1.5 2.1 1.5.9 0 2.1 1.3 2.6 3 .6 1.6 1.5 2.7 2.1 2.4.6-.4.5-1-.3-1.5-.7-.4-1-1.1-.6-1.5.4-.4.2-1.4-.5-2.1-.9-1.1-.9-1.7.3-2.4 2.3-1.4 3.1-1.1 2.4 1.1-.8 2.4.2 2.5 3 .4 1.7-1.3 1.8-1.6.5-2.4-1.7-1.1-2.5-1.2-6-1.2-1.5.1-1.8-.1-.8-.4 1.8-.6 3.3-3.4 1.8-3.4-.6 0-1-.9-1-2s-.6-2-1.4-2c-.8 0-1.6-.7-2-1.5-.4-1.2-.2-1.3 1.3-.6 1 .6 2.7.7 3.9.4 2.6-.6 3 1.2.6 2.5-1.5.8-1.5 1.1.5 3.1 2.2 2.2 4.1 2.7 4.1 1.1 0-.6-.5-1-1.1-1-.6 0-.9-1-.7-2.3.2-1.8.9-2.2 3.3-2 1.7 0 2.4-.1 1.8-.4-2-.7-1.5-2 .8-2.6 1.4-.4 1.8-1 1.3-1.9-.6-1-.5-1 .9 0 .9.8 2.1 1.1 2.6.7.7-.3.8 0 .5 1-.4 1-1.3 1.3-2.6.9-1.4-.4-1.8-.3-1.3.5 1 1.8-1.5 4.2-3.6 3.6-1.3-.4-1.9-.1-1.9.9s.6 1.3 1.5 1c2.1-.8 1.9.6-.2 2.2-1.7 1.2-1.6 1.4.7 3.1 1.4 1 3.6 2.3 5.1 2.9 2.4 1.1 2.5 1 2.2-1-.4-1.8-1-2.2-3.4-1.8-2.9.4-2.9.4-1.7-2.9 1.7-5.1 3.5-6.7 7.4-6.6 2.8.1 3.4.4 3.1 1.8-.3 1 .1 2 .9 2.3.8.3 1.4 0 1.4-.7 0-.8.3-.8.8-.2.8 1.2 4.8 1.2 7.5 0 1-.4 1.7-.3 1.7.4 0 .6-.5 1.1-1 1.1-.6 0-1.5 1-2 2.2-.5 1.4-.9 1.7-.9.8-.1-1.2-1-1.5-3.7-1.2-2.5.3-3.2.7-2.3 1.3.8.5.9.9.3.9-.7 0-1.4.9-1.7 2-.3 1.2-.1 1.8.5 1.4.6-.4 1.4 0 1.9.7.8 1.2 1 1.2 1.8 0 .6-.9 1-1 1.6-.2.4.7.2 1.8-.4 2.5-2.3 2.7 1.5 2.8 4.9.1 2-1.6 5-1.5 5 .1 0 .8-.7 1.1-1.7.7-1-.3-1.5-.3-1.1.2.4.4.3 1.5-.2 2.4-.7 1.4-.3 1.7 2 1.9 3.1.2 5-1.6 3-2.8-.7-.4-1-1.4-.7-2.2.8-2.1-.4-3.5-3.6-4.3-2.3-.6-2.7-.4-2.7 1.4 0 2.8-1.6 2.7-2.3-.1-.7-2.6 1-4.1 3.8-3.2 1.1.4 3.4.7 5 .8 2.5.1 3-.3 2.9-2.2 0-1.2.5-2.2 1.3-2.2 1 0 1.3 1 1.1 3.2-.2 2.5-.7 3.2-2 3-1-.2-1.8.2-1.8.8 0 .5.9 1 2 1 2 0 2 .1.3 3.2-.9 1.8-1.6 3.7-1.4 4.2.5 1.8-.9 5.7-1.9 5.1-.5-.3-1.1-.1-1.5.5-.3.5-.2 1 .4 1 1.1 0 .8 1.3-2.1 7.8-1.9 4.4-2 6.4-.1 4 1.6-2.1 5.9-13.6 8.2-22.3 1.2-4.4 4.9-16.1 8.2-26 9-27 12.6-39.5 15.9-55.9 3.7-17.8 6.4-28.4 7.8-29.8.7-.7 4.1-.3 10.4 1.1 5.1 1.1 11.1 2.4 13.3 2.7 2.2.3 4.4.9 4.9 1.2.5.3 4.6 1.3 9 2.3 4.5.9 14.4 3.9 22.1 6.6 11.7 4.2 14 5.3 13.8 6.9-1.3 12.5-2.3 17.3-4 20.7-.8 1.6-1.6 3.6-1.8 4.5-.4 2.4-3.5 13.4-4.2 15.2-.3.8-.7 1.9-.7 2.5-.1.5-1.3 4.1-2.7 8-4.5 11.9-12.1 37.1-17.4 58.3-1.9 7.3-3.7 13.7-4 14.2-.9 1.5-1.5 16-.6 16 2.4 0 6.2-4.6 7.6-9.3.8-2.9 2.2-6.6 2.9-8.2 2.9-6 9.4-21.1 10.1-23.4.6-1.8.9-2.1 1.6-1 .8 1.2 1.1 1.2 2-.1.9-1.3 1-1.2.5.2-.3 1-.1 1.8.5 1.8s.7.4.4 1c-.3.6.1.7 1 .3 2.7-1 3.3-4.2 1.6-8l-1.6-3.5-.5 2.8c-.3 1.7-1.2 3-2.3 3.2-1.7.3-1.7.1.2-3.6 1.1-2.3 2.6-4.4 3.2-4.8.8-.4.9-.3.5.4s-.2 1.2.4 1.2c.7 0 1 .7.6 1.5-.3.8-.1 1.5.4 1.5.6 0 1 .9 1 2 0 2.8 1.6 2.5 6.1-1.1 2.1-1.7 3.9-2.8 3.9-2.4 0 1.4-3.3 5.4-4.1 4.9-1.2-.7-4.2 2.3-3.5 3.4.3.5-.6 1.5-1.9 2.2-1.4.7-2.5 2.1-2.5 3 0 1.3-.6 1.6-2.5 1.2-1.6-.3-2.5-1.1-2.5-2.3 0-1.1-.4-1.9-.9-1.9-.4 0-.6 1.1-.3 2.5.2 1.5 0 2.5-.7 2.5s-.9.5-.6 1c.4.6.9.8 1.3.6 1-.6 4.7 2.2 4 3-.4.3-1.6 0-2.8-.6-2.7-1.4-3.5-.8-2.1 1.7.5 1 1.2 2.6 1.5 3.6.3 1 1 1.6 1.4 1.3.4-.3 1.3.8 1.9 2.5.9 2.3.9 2.9-.3 2.9-.8 0-1.4-.9-1.4-2s-.4-2-.9-2c-1.9 0-2 1.8-.5 4.9 1.6 3.1 1.9 3.2 9.7 3.5 3.1.1 3.4.8 1.2 2.6-1.2 1-1.3 1.6-.3 2.8.7.9-.2.5-2.1-.8-1.9-1.3-3.1-1.9-2.7-1.2.4.7.1 1.2-.9 1.2-1.1 0-1.5-.5-1.1-1.6.3-.8.2-1.2-.3-.9-.5.3-1.2.1-1.6-.5-.8-1.3-4.5-1.3-4.5 0 0 .5.7 1 1.5 1s2 .9 2.7 2c.7 1.1 1.8 2 2.5 2 1.6 0 1.6 1-.1 3.3-1.2 1.5-1.4 1.6-2 .2-.3-.8-1.3-1.5-2.2-1.5-1 0-1.4.5-1 1.5.3.8.1 1.5-.4 1.5-.6 0-1-.6-1-1.3-.1-.7-.6-.5-1.4.5-.7 1-1.6 1.8-2.1 1.8-.4 0-1.7.8-3 1.8l-2.3 1.8 2.3 2.2c1.3 1.2 3 2.2 3.9 2.2.9 0 1.6.5 1.6 1.1 0 .6-.7.8-1.6.5-.8-.3-2.5.3-3.6 1.4-1.2 1.1-2.9 1.8-3.9 1.5-2-.7-3.3 2-2 4.2.6 1.2 1 1.3 1.6.3.4-.7.2-1.6-.6-2.1-1.1-.7-1.1-.9.3-.9.9 0 2.4-.3 3.3-.6 1.2-.5 1.6-.2 1.3 1.1-.2 1 .2 2 .9 2.2.6.2 1.3-.6 1.5-1.8.2-1.2.9-2.5 1.7-2.7 1-.3 1.2.1.8 1.7-.3 1.5-.1 2.1.6 1.8.7-.2 1.1-1.5 1-2.8-.1-1.3 0-1.8.3-1.1.3.6 1 1 1.5.6.5-.3.9.2.9 1s-.5 1.8-1.2 2.2c-.7.5-.3 1.1 1.3 1.7 2.2.9 2.3 1 .4 1.5-1.1.2-2.3.9-2.6 1.4-.4.6-1 .1-1.4-1.1-.7-2.2-3.5-3-3.5-.9 0 .6-1.1.1-2.4-1.1-2.1-1.9-2.4-2-3-.6-.9 2.4-.8 2.8.8 2.2 2.1-.8 2.6 2.5.9 6.4-1.3 3-1.2 3.5.3 4.6 2.3 1.7 3.7 1.7 2.7.1-1.9-3.2-1.1-4.4 2.1-3.2 1.4.5 1.4.9.4 2.2-1.1 1.3-.9 1.5 1.5 1 1.5-.3 2.7-.1 2.7.3 0 .5 1.2.9 2.8.9 1.5 0 2.2.4 1.6.8-2 1.3-2.5 5.9-.7 7.3 1.4 1.2 1.5 1.1.9-.9-.5-1.5-.3-2.4.7-2.8 1-.4 1.4-1.6 1.2-3.6-.4-2.4-.1-2.9 1.1-2.4.9.3 2 .6 2.6.6.6 0 .6.6-.2 1.5-1 1.3-.9 1.5 1.1 1.5l2.4.1-2.4 1.9c-1.8 1.5-1.9 2-.7 2 .9 0 1.6.5 1.6 1.1 0 .5.5.7 1 .4.6-.3 1 .2 1.1 1.2 0 1 .3 1.3.5.7.3-.7 1.4-1 2.4-.7 1.5.4 2 0 2-1.3 0-1.7.1-1.7 1.3-.1 1.1 1.6 1.4 1.6 3.2.3 1.1-.9 1.4-1.6.8-1.6-2.3 0-1.4-1.5 1.6-2.7 2.4-.9 3.1-.8 3.5.3.3.8.2 1.3-.2 1.3-1.8-.3-3.5.2-2.9.7 1.1 1.2-4 4.4-5.9 3.7-1.2-.4-1.5-.3-1 .5s0 1.2-1.3 1.2c-1.2 0-2.1.5-2.1 1.1 0 1-.5.9-4.6-.8-.6-.2-1.4.7-1.8 2.1-.5 2-2.2 3.1-8.8 5.6-7.9 3-28.3 10-29.3 10-.3 0-.5-.8-.6-1.8-.1-1.1-.4-.8-.8.8-.4 1.4-.7 2.6-.6 2.7.2.4 23.8-7.4 32-10.6 10.2-4 26.5-12.1 33-16.3l5-3.3.2-12c.2-6.6.7-14.3 1.3-17 .5-2.8 1.5-7.6 2.1-10.7.5-3.2 1.5-6 2-6.3 1.7-1.1.9-2.5-1.5-2.5-2.9 0-9-5.9-14.1-13.5-2.9-4.4-3.7-6.9-4.5-13.2-1.5-12.3-1.5-63.2 0-68.8 1.8-7 2.7-22.4 2.4-40.8-.3-11.3 0-17.6.6-17.2.5.3.3-1-.5-2.8-.8-1.9-1.1-3.8-.7-4.2.4-.3.7-2.5.7-4.8 0-3.6.3-4.2 2.3-4.5 1.2-.2 2.2-.9 2.2-1.7 0-.8.7-1.1 2-.8 1.1.3 2 1 2 1.6 0 .6.3.8.6.5.3-.4 0-1.6-.6-2.9-1-1.8-1-2.1.2-1.7.9.4 1.4-.1 1.4-1.2 0-1-.4-1.6-.8-1.4-.4.3-.8.1-.8-.5 0-1.5 1.4-2.1 3-1.1 1 .6 2.1.3 3.2-.7 1.4-1.2 1.8-1.3 1.8-.3 0 .9.5.7 1.4-.6 1.1-1.4 1.1-2.1.3-2.6-1.2-.7.5-1.3 2.7-.9.5.1.6-.6.2-1.5-.4-1.2-.2-1.5.9-1 .8.3 1.5.1 1.5-.3 0-1.8-2.4-1.7-4.3.2-1.8 1.8-1.9 1.8-3.2 0-1.2-1.5-1.1-1.8.1-2.1.8-.2 1.4-.8 1.4-1.3 0-1.4 3.1-1.1 6.4.6 2.2 1.2 3.1 1.3 3.7.4.4-.6 1.2-.8 1.8-.5.6.4 1.4-.1 1.9-1.1.4-1 1.2-1.8 1.7-1.8 3.6-.2 9.6-1.9 10.6-3.1.6-.7 1.6-1.1 2.2-.7.5.3.7.1.4-.4-.4-.6.1-1.4 1-1.8 1-.3 1.9-.1 2.1.4.2.6 1.6 1.1 3.2 1.1s3 .6 3.3 1.2c.2.7 1.1-.1 2-1.8.9-1.7 1.3-3.4 1-3.8-.4-.3.1-.6.9-.6 2.3 0 4.5 5.9 4.9 13.2.1 1.5.6 2.5 1.2 2.1.6-.4.8.4.5 2.1-.3 1.4-.2 2.6.2 2.6s1 7.1 1.3 15.7c.3 8.7.9 16.9 1.2 18.3.3 1.4.4 12.6.4 25-.3 46.4 0 64 1.6 89.5.7 10.6.5 22.1-.5 25.4l-.9 3.4 2.5-2.4c3.2-2.9 8.9-10.5 13.4-17.9 3.7-6.1 18.3-33.1 21.6-40 1.9-3.9 9.7-23.6 9.9-25 0-.3 1.3-4.3 2.7-9 3.4-11 4.1-14.3 3-13.6-.5.3-1.2 2.4-1.6 4.6-.4 2.7-1 3.9-1.8 3.4-.7-.4-.8-.3-.4.5 1.1 1.8-.3 5.1-1.9 4.4-1-.3-1.3-1.3-.8-3.1.4-1.7.2-2.3-.5-1.8-.7.4-.9-.2-.7-1.6.6-4 1.7-6.8 2.5-6.3 1 .6.7-4.6-.3-6.3-.5-.7-.4-1.2.3-1.2.6 0 1-1.6.8-4-.1-2.2-.6-4-1.1-4-.5 0-.3-.7.4-1.6 1.6-2 2.2-5.4.9-5.4-.6 0-1-.5-1-1.1 0-.5.4-.7 1-.4.5.3.7 0 .4-.9-.3-.8-.1-2.4.6-3.5.7-1.4.7-2.1 0-2.1-.5 0-1-.7-1-1.5s.4-1.5.8-1.5.6-1.6.4-3.6c-.3-2 0-3.9.7-4.3 1.4-.9-.5-8.1-2.2-8.1-.7 0-.4-.5.5-1.1 2.3-1.3 2.3-3 .1-2.2-1.4.5-1.3.3.3-1.4 1-1.1 2.2-1.8 2.7-1.6.4.2.7 0 .7-.6 0-.5-.5-1.1-1-1.3-.6-.2-1.2-3.5-1.3-7.4-.2-5.9-.5-7-1.7-6.6-1.3.5-1.3.3-.1-1.1.7-.9 1-1.7.7-1.7-.4 0 0-1 .8-2.1 1.1-1.6 1.2-2.7.4-4.5-.8-1.7-.8-2.7 0-3.7s.6-1.6-.9-2.5c-1.9-1.2-1.9-1.5-.5-3.7 1.1-1.7 1.2-2.6.5-3.1-.8-.4-.7-.9.2-1.5 1.1-.7 1.1-1.1.2-1.7-.8-.5-.9-1.3-.3-2.2 1-1.5 1-1.4 3.4 10 1.3 6 1.4 6.2 1.5 2.4.1-2.3-.8-7.3-1.9-11-4.1-14-4.9-17-5.9-20.9-4.3-17.9-17.6-49.3-26.3-62.5-4.9-7.5-18.2-21.6-31.4-33.4-9.7-8.7-34.8-27-47.9-35-11.7-7.1-46.7-24-56-27-26.2-8.4-53-11-89-8.6zM216 41.5c6.3.1 12.6.5 14 .9 2 .6 2.2.5 1-.4-1.2-.9-1-1 1-.4 8 2.3 12.8 3.4 14.8 3.4 1.3 0 2.2.6 2.2 1.6 0 .8.5 1.2 1 .9.6-.4.8-1.1.5-1.6-1.3-1.9.8-.8 3.3 1.9 2.2 2.4 3.2 2.7 5.5 2.1 2.2-.6 2.6-.5 1.8.5-.6.7-.8 1.6-.4 2 .4.3.8 1.4.9 2.4.2.9.5 3.3.8 5.3.4 2.6.1 4-.9 4.9-1 .9-1.5.9-1.5.1 0-1.8-3-1.2-3.1.6 0 1.5-.2 1.5-.7.3-.4-.8-2.2-1.7-4.1-1.9-1.9-.1-4.5-.7-5.8-1.2-1.6-.6-2.2-.5-1.8.1 1 1.6-.7 1.2-2.7-.7-1.4-1.3-1.8-1.3-1.8-.2s-.2 1.1-1-.1c-.9-1.3-1.1-1.3-2 0-.9 1.3-1.1 1.3-2 0-.8-1.2-1.3-1.3-2.9-.3-1.4.9-2.2.9-2.7.2-.3-.6-1.3-.8-2.1-.5-1.1.4-1.3 0-.9-1.7.3-1.2.3-1.6 0-1-.3.7-1.2 1.3-2 1.3-.9 0-1.2-.4-.9-1 .3-.6-.1-.7-.9-.4-1 .4-1.6.1-1.6-.7 0-.7-.3-.9-.7-.6-.3.4-1.2.2-2-.4-.8-.7-1.3-.8-1.3-.1 0 .6-2.3.9-5.4.8-3 0-5.2-.4-5-.8.3-.4-.5-.6-1.6-.5-1.1.1-2 .5-2 .9s-.4.8-1 .8c-.5 0-1-.6-1-1.3 0-.8-.6-1.4-1.2-1.4-4.6-.3-6.6-.8-6.1-1.6.9-1.5-1.7-2.5-5.3-2.2-2.5.3-3.4 0-3.4-1.2 0-.9-.6-1.3-1.4-1-.7.3-2-.3-3-1.4-1.7-2-2.2-4.8-.8-5 .4 0 1.7-.2 3-.5 1.5-.2 2.2.1 2.2 1.1 0 1.2.3 1.2 2-.2 2.1-1.8 6-2.5 6-1.1 0 .5.9.4 2.1-.2 1.1-.7 2.6-.9 3.3-.7.7.3 1.9.1 2.6-.3.8-.5 1.9-.6 2.4-.2.6.3 6.3.7 12.6.7zm-37 6c1 1.2 1 1.5-.4 1.5-.9 0-1.6-.7-1.6-1.5s.2-1.5.4-1.5.9.7 1.6 1.5zm110.3 4.7c.3 1 .9 1 2.8 0 1.5-.8 3.4-.9 5.3-.4 2.6.7 3 1.3 3.3 5.4.2 2.6-.1 4.9-.6 5.3-.7.4-.9-.1-.5-1.2.5-1.5.4-1.5-.5-.3-.7 1-.6 1.9.5 3.1.8.8 1.7 3.6 1.9 6 .3 2.4.9 5.5 1.2 6.9 1.3 5.1 1.5 6.7 1.8 14.5.2 4.4.4 8.2.5 8.5.3 1 .9 4.5 1.4 9 .3 2.5.6 4.5.6 4.5.3 0 1.1 6.4 1.4 11.2.1 2.9.8 5.8 1.4 6.6.6.7 1.3 3.8 1.6 6.8.2 2.9.5 5.4.6 5.4.1 0 .3 2.2.5 5 .6 7.7 1.4 11.3 2.8 11.9.9.3.9.7 0 1.3-1.8 1.3.5 10.1 2.9 10.9 1.6.5 1.7.8.4 2.6-1.3 1.8-1.3 2.4.1 4.4.9 1.5 1.1 2.4.4 2.4-.6 0-1.1.7-1.1 1.5s.6 1.5 1.4 1.5c.7 0 1.6.9 1.9 2 .4 1.6.2 2-1.2 1.5-1.2-.3-1.7.1-1.7 1.5 0 1.3.4 1.6 1 1 1.5-1.5 2.9-1.2 2.3.5-.4.8-.2 1.7.4 2.1.6.3.8 1.2.5 1.9-.6 1.8 1.5 8.5 2.7 8.5.6 0 .2.9-.7 1.9-1.7 1.8-1.7 1.9.1 2.5 2.6.8 2.3 6.2-.6 11.7l-2.3 4.4-9.7-.3c-14.3-.3-17.9-.6-18.7-1.5-.4-.4.7-.7 2.4-.7 1.8 0 3.2-.5 3.2-1.1 0-.7-1.2-1-2.9-.7-2.1.3-2.8.1-2.4-.9.3-.7-.2-1.3-1-1.3s-1.7-1.3-2.1-3.2c-.7-3.6.1-5.1 1.5-2.5.6.9 1.8 1.7 2.7 1.6 1 0 1.2-.3.5-.6-.7-.2-1.3-.9-1.3-1.4 0-.6.5-.7 1.1-.3.8.4.8 0 0-1.5-1.3-2.4-2.2-2.6-3.9-.9-1 1-1.5 1-2.2-.2-1.5-2.3-1.2-3.4.5-2 1.2 1 1.5.9 1.5-.4 0-.9-.6-1.9-1.2-2.1-1.5-.6-2.1-5.5-.7-5.5.5 0 .9.5.9 1.2 0 .6.3.9.6.5.9-.8-.6-4.8-1.6-4.2-1 .6-2.4-3.1-1.6-4.4.4-.5.2-1.1-.4-1.3-.5-.1-1.2-2.2-1.4-4.5-.3-2.3-.7-4.8-.8-5.5-.2-.8.5-1.2 1.7-1.1 1.9.1 1.9.1-.2-1.5-1.1-.9-2.5-3.3-2.9-5.2-.4-1.9-.8-3.7-.9-4-.1-.3-.5-2-.9-3.9-.5-1.8-.9-5-1.1-7-.1-2-.5-4.7-.8-6.1-.4-1.4-1.1-6.1-1.6-10.5s-1.2-8.9-1.7-10c-.7-1.8-.6-1.8.9-.6 1 .8 1.7.9 1.7.3 0-.6-.8-1.5-1.7-2-1.2-.7-1.7-2.4-1.8-5.6 0-4.1.2-4.5 1.8-4 1.3.4 1.7.2 1.3-.5-.4-.6-1.4-1.1-2.3-1.1-1.3 0-1.4-.2-.2-1.7s1.2-1.6-.3-1c-1 .3-1.8.3-1.8-.1s-.3-1.7-.6-2.8c-.4-1.4 0-2.3 1.1-2.8.9-.3 1.3-.2 1 .4-.3.6.2 1 1.1 1 1 0 1.5.3 1.1.6-.8.9 2.1 6.4 3.3 6.4.6 0 1-.9 1-2.1 0-1.1.5-1.7 1-1.4.6.3 1 .2 1-.4 0-.5-.4-1.3-1-1.6-.5-.3-1-.1-1 .4 0 .6-.4 1.1-1 1.1-1.5 0-1.2-1.9.5-3.6.8-.9 1.5-1.2 1.5-.8 0 .3.6.1 1.4-.5 1.2-1 1.3-.8.9.8s-.1 2.1 1.6 2.1c1.4 0 2.1.6 2.1 2 0 1.2-.5 1.7-1.3 1.4-1.1-.4-8.7 6.5-8.7 7.9 0 .9 3.1 3.7 4.1 3.7.5 0 .4-.9-.3-2-1-1.6-.9-2.4.8-4.7 2.4-3.2 4.4-4.1 4.4-1.8 0 .9.5 1.3 1 1 .7-.4.9.2.4 1.9-.4 1.6-.2 2.6.5 2.6.6 0 1.1-.4 1.1-.9s.8-.7 1.8-.4c1.1.2 3.6-.3 5.7-1.1 2.1-.9 4-1.4 4.3-1.1.3.3 0 .5-.5.5-1.3 0 .6 6 2.2 7.2.6.5.6.8-.2.8-.6 0-1.9-1-2.9-2.3-1.2-1.6-1.5-1.7-1-.4.3 1 .6 2.2.6 2.7 0 .4 1.4 1.3 3 1.9l3 1-.6-4.2c-.3-2.3-.8-4.9-1.1-5.7-.3-.8-.7-2.2-.9-3-.2-.8-1-2-1.9-2.7-1.5-1.1-1.5-1.3.4-2.5 1.2-.7 2.1-1.7 2.1-2.2 0-.4-.7-.3-1.5.4s-2.1 1-2.9.7c-.8-.3-2 .1-2.6.8-1.7 2-5.9.9-9-2.3-1.7-1.8-2.4-3.7-2.4-6.4 0-2.1-.4-3.8-1-3.8s-.4-.5.4-1c1.2-.7 1.2-1.2.2-2.2-.9-.9-1.2-.9-1.2.1 0 1.1-.3 1.1-1.5.1-.8-.7-1.5-1.9-1.5-2.6 0-1.8-1.6-1.8-2.3 0-.3.8-.1 1.6.6 1.9.6.2.2.6-1.1.9-1.8.5-2.1.2-2-1.8.1-1.3.7-2.4 1.3-2.4 1.9 0 4-2 3-2.8-2.1-1.5-3.5-5.1-2.3-5.8.6-.4.8-.3.5.3-.4.6.5 2 1.8 3.3 1.9 1.7 2.3 2.9 1.8 4.8-.5 2.2-.3 2.4 1.3 1.8 1-.4 2.7-.9 3.8-1.2 2.7-.5 3.3-1.4 1.6-2.4-1-.6-1.7-.4-2.3.5-1 1.9-2.7 1.9-2.7 0 0-.8.6-1.5 1.4-1.5.7 0 1.9-.7 2.6-1.5 1.2-1.4.6-1.9-2.1-1.7-.3 0-1.1-.9-1.9-2.1-1.2-2-1.2-2.1.3-.8 1 .7 1.7 1 1.7.6s.6-.2 1.4.4c1.1.9 1.2.6.8-1.4-.3-1.8 0-2.5 1.2-2.5.9 0 1.6-.7 1.6-1.5s-.4-1.5-1-1.5c-.5 0-1-.7-1-1.5s.5-1.5 1.1-1.5c.5 0 .7-.5.3-1.1-.4-.8-.9-.7-1.5.2-.5.8-.9 1-.9.5s-.7-.2-1.6.5c-1.4 1.1-1.8 1.1-2.9-.4-.6-.9-1.5-1.4-1.8-1-.4.3-.7.2-.7-.4 0-.6.7-1.3 1.5-1.7 1-.4 1.5.1 1.5 1.6 0 1.7.3 1.8 1.5.8.8-.7 1.2-1.6.9-2.1-.3-.5-.2-.9.3-.8 2.1.4 4.3-.2 4.3-1.1 0-.6-1-2.1-2.3-3.4-2.1-2.1-2.3-3.1-1.8-9.9.1-1.2.6-1.6 1.4-1.1.6.4.4-.2-.5-1.3-1.9-2.1-2.4-4.3-.9-4.3.5 0 1.1.6 1.4 1.2zm-19.9 4c-.9 3.1-1.2 3.4-2.5 2.1-.8-.8-.8-1.6.2-2.7 2-2.2 3.1-1.9 2.3.6zm17.6-.7c0 .8-.4 1.5-.9 1.5s-1.1-.7-1.5-1.5c-.3-.9 0-1.5.9-1.5.8 0 1.5.7 1.5 1.5zm-67.7 3.9c.4 1 .1 1.3-.9.9-1.5-.6-1.9-2.3-.5-2.3.5 0 1.1.7 1.4 1.4zM283 69c-1.8 1.2-3 1.3-3 .2 0-.4 1-.9 2.2-.9 1.8-.2 2 0 .8.7zm6.5 1c.3.5.2 1-.4 1-.5 0-1.3-.5-1.6-1-.3-.6-.2-1 .4-1 .5 0 1.3.4 1.6 1zM269 75.1c0 4.2-1.5 3.6-1.8-.7-.2-2.3.1-3.3.8-2.9.5.3 1 1.9 1 3.6zm9.4-.3c-2.2.5-3.1-.7-1.4-1.8.9-.6 1.7-.5 2.2.3.4.7.1 1.3-.8 1.5zm-177.3 2.5c2.2-.4 2.9-.2 2.9 1.1 0 .9.8 1.6 2 1.6 1.1 0 2-.5 2-1.1 0-.7.7-.8 1.8-.4.9.4 2.4.8 3.2.9.8.1 2.6.8 4 1.6 1.3.7 4 1.4 6 1.6 1.9.1 6.1 1.5 9.3 3 4.9 2.4 6 2.6 6.7 1.4 1.1-1.8 1-1.9 4.7 7 4.6 11.4 9.3 28.2 9.3 33.7 0 1.5.7 5.7 1.4 9.3 1.2 5.8 1.2 7.5-.5 16.5-2.5 13-3.6 16.2-7.1 20.7-3.7 4.7-14.7 12-21.4 14.2-7.5 2.4-18.2 2.8-21.4.7-1.4-.9-3.6-2.2-5-2.9-8.4-4-17.9-12-24.6-20.4-4.6-5.9-8.1-14.2-9-21.3-.3-2.2-.9-6.3-1.5-9.1-.5-2.8-.7-6.8-.3-9 .3-2.1.7-6 .8-8.5.4-5.8.8-6.5 8-12.8 5.8-5 6.8-6.9 6.8-12.9 0-2.8 6.1-9.3 10.6-11.3 1.8-.8 3.2-2 3.2-2.7 0-.7.4-1.1.9-.7.5.3 1.3 0 1.6-.6.5-.7 1-.8 1.8 0 .5.5 2.3.7 3.8.4zm5.4-.3c.3.5.1 1-.4 1-.6 0-1.1-.5-1.1-1 0-.6.2-1 .4-1 .3 0 .8.4 1.1 1zM271 81c0 .5-.7 1-1.6 1-.8 0-1.2-.5-.9-1 .3-.6 1-1 1.6-1 .5 0 .9.4.9 1zm1 14c0 .5-.4 1-1 1-.5 0-1-.5-1-1 0-.6.5-1 1-1 .6 0 1 .4 1 1zm.5 5c-.3.5-1 1-1.6 1-.5 0-.9-.5-.9-1 0-.6.7-1 1.6-1 .8 0 1.2.4.9 1zm4.8 2c.3 1.1.2 2-.3 2-.4 0-1-1.1-1.2-2.5-.6-2.9.7-2.5 1.5.5zm-2.7.6c-.4.9-.1 2.3.5 3.1.7.7.8 1.7.4 2.1-.4.4-1 .1-1.2-.6-.3-.6-.9-1-1.4-.6-1 .6-1.3-3.9-.2-4.9 1.2-1.3 2.5-.7 1.9.9zm10.4.9c0 .8-.4 1.5-1 1.5-.5 0-.7-.7-.4-1.5.4-.8.8-1.5 1-1.5.2 0 .4.7.4 1.5zm-3.1 2.9c.8 1 .9 1.6.1 2.1-1.3.8-3-.3-3-2.1s1.4-1.8 2.9 0zm13.5 12.8c.8.5.7 1.1-.2 2-.9.9-1.5.9-2.4 0-.7-.7-.8-1.2-.2-1.2.5 0 .2-.5-.6-1-1.3-.9-1.3-1.1 0-2 1-.6 1.6-.6 1.9.3.2.7.9 1.5 1.5 1.9zm4.9-1.8c.6 1.6-1.9 3-2.8 1.6-.7-1.1.2-3 1.5-3 .4 0 1 .6 1.3 1.4zm-103.4 66.3c3.3 2.3 9.9 3.1 13.5 1.7.9-.3 1.9-2.3 2.2-4.4.7-4.4 2.3-5.4 6.2-3.9 1.5.6 2.8 1 2.9 1 .2 0 2.1.6 4.3 1.4 2.2.8 4.6 1.2 5.3 1 1.9-.8 7.7 3.2 7.1 4.9-.3.8.3 1.9 1.4 2.5 1.3.7 2.2 2.6 2.7 5.8 1 5.8.9 5.2 3.3 13.8 1.1 3.8 2.9 9 4 11.5s2.5 7.8 3.1 11.7c1.4 9.1 0 16.5-6.5 34.9-2.5 7.1-5.2 15.1-6 17.9-.7 2.7-2.1 5.6-3.1 6.2-1 .8-1.2 1.3-.4 1.3.8 0 1 .7.6 2.2-1 3.2-1.8 3.9-5.4 4.3-3.1.4-3.7-.4-3.2-4.2.1-1-.5-1-2.4-.3-3.2 1.2-4.5 1.3-2.6.1 1.5-1 .7-3.1-1.2-3.2-.7 0-2.8-2-4.7-4.3-1.9-2.4-4.1-4.1-4.7-3.8-.7.2-1.7-.8-2.3-2.3-.9-2.3-1.3-2.5-2.5-1.5-2.1 1.7-2.6.9-.9-1.4 1-1.5 1.6-1.6 2.7-.7 1.1.9 2.1.8 4.3-.4 1.6-.8 2.6-1.5 2.2-1.6-.5-.1-1.2-.3-1.8-.4-.5-.1-1.6-.3-2.2-.4-.9-.1-.7-.6.5-1.5 2.5-1.9 2.1-2.6-.8-1.3-1.4.7-2.5 1.5-2.5 1.9 0 .5-.7.8-1.5.8-.9 0-1.8.7-2.1 1.5-.4.8-1.1 1.5-1.6 1.5-.7 0-.7-.4-.1-1.3 2-2.5 2.2-4.5.5-4.3-.9 0-2.1-.9-2.7-2.2-1.1-2.6-1.8-2.7-3.5-.8-1 1.3-1.8 1.2-5.6-.7-2.4-1.1-4.4-2.5-4.4-2.9 0-.4-.7-.8-1.6-.8-.8 0-1.3-.4-.9-.9.3-.5 0-1.3-.6-1.7-.8-.4-.9-.3-.5.4.9 1.6.5 1.5-3.3-.4-3-1.5-3.2-2-2.7-4.9.4-1.8 1.4-4.7 2.3-6.5 1.2-2.5 1.3-3.4.3-4-.7-.4-.8-1-.2-1.3.8-.6-.8-9.3-2.2-11.6-.3-.5-.8-4.8-1.2-9.7-.3-4.9-.7-9.1-.9-9.5-.2-.3-.9-3.7-1.5-7.5-.7-3.8-1.4-8.1-1.6-9.6-.3-1.5-1.6-5.5-3-9s-2.7-8.2-3.1-10.4l-.5-4.2 8.3.3c4.6.1 9.3-.1 10.4-.5 1.7-.7 2.4 0 4.5 4.4 1.5 2.9 3.9 6 5.9 7.3zm298 2.3c0 .9-.4.8-.9-.5-.5-1.1-.9-2.7-.9-3.5 0-.9.4-.8.9.5.5 1.1.9 2.7.9 3.5zm2.5 12c-.5.5-1-.7-1-2.8-.2-3.7-.2-3.7.8-.9.6 1.6.6 3.3.2 3.7zM330 212.5c-.7.9-1.5 1.3-1.9 1-.3-.3.1-1 .9-1.5 2.1-1.4 2.4-1.2 1 .5zm91.5 3.5c-.3.5-1.1 1-1.6 1-.6 0-.7-.5-.4-1 .3-.6 1.1-1 1.6-1 .6 0 .7.4.4 1zm-27.9 13.2c.4.6.3.8-.4.4-.6-.3-1.3.2-1.5 1.1-.4 1.4-.5 1.3-.6-.5-.1-2.3 1.3-3 2.5-1zM344.5 245c.3.5.1 1-.4 1-.6 0-1.1-.5-1.1-1 0-.6.2-1 .4-1 .3 0 .8.4 1.1 1zm-2.5 3.4c0 .3-.4.8-1 1.1-.5.3-1 .1-1-.4 0-.6.5-1.1 1-1.1.6 0 1 .2 1 .4zm-4.5 5.6c.3.5.1 1-.4 1-.6 0-1.1-.5-1.1-1 0-.6.2-1 .4-1 .3 0 .8.4 1.1 1zm3.4 3.3c-.2.1-1.2.9-2.2 1.6-1.5 1.2-1.7 1.2-1.1-.3.3-.9 1.3-1.6 2.2-1.6.8 0 1.3.1 1.1.3zm-9.7 2.9c-.7.7-1.2.8-1.2.2 0-1.4 1.2-2.6 1.9-1.9.2.3-.1 1.1-.7 1.7zm7.8 3.2c0 .2-.7.7-1.6 1-.8.3-1.2.2-.9-.4.6-1 2.5-1.4 2.5-.6zm-32.6 4.5c.3.5-.1 1.1-.9 1.4-.9.4-1.2.1-.8-.9.6-1.6 1-1.7 1.7-.5zM202 274c0 .5-.8 1-1.7 1-1.5 0-1.6-.2-.3-1 1.9-1.2 2-1.2 2 0zm1 5.4c0 .3-.4.8-1 1.1-.5.3-1 .1-1-.4 0-.6.5-1.1 1-1.1.6 0 1 .2 1 .4zm15 7.4c0 .4-.9.8-1.9.8-1.1 0-1.7-.4-1.5-.8.3-.4 1.2-.8 2-.8s1.4.4 1.4.8zm2 2.5c0 .8-.7 1.4-1.5 1.4-1.1 0-1.2-.4-.4-1.4.6-.7 1.3-1.3 1.5-1.3.2 0 .4.6.4 1.3zm-7 4.7c0 .5-.8 1-1.7 1-1.5 0-1.6-.2-.3-1 1.9-1.2 2-1.2 2 0zm22.6 7.7c-1.1 1.1-1.9-.6-1.1-2.4.8-1.7.8-1.7 1.2 0 .3 1 .2 2.1-.1 2.4zm-8.7 2.7l2.2 2.3-2.5.5c-1.5.3-2.6.1-2.6-.3 0-.5.5-.9 1.1-.9.6 0 .3-.7-.5-1.6-1.8-1.7-2-2.4-.8-2.4.5 0 1.9 1.1 3.1 2.4zm-105.8 5.4c0 3.1.4 6.6.8 7.7.5 1.1.4 2.8-.1 3.7-.6 1.2-.5 1.8.3 1.8.7 0 1 1.2.7 3-.3 1.7 0 3 .6 3s1.1 1.3 1.2 3c.1 1.6 1.3 4.8 2.8 7 1.7 2.6 2.5 4.8 2.1 6.1-.4 1.1-.2 1.9.4 1.9.6 0 1.1.7 1.1 1.6 0 .8.9 3.5 2 5.9 1.1 2.5 2 4.8 1.9 5.2-.2 1.4 1.3 5.3 2.1 5.3.4 0 1 .9 1.3 2.1.4 1.4 1 1.8 1.8 1.3s1.1-.2.6.8c-.3.9-.1 2 .4 2.5.6.6.6 2-.1 3.8-.7 1.8-.7 3.2-.1 3.8 1.4 1.4.2 3.7-1.5 3-.8-.3-2.1.3-2.8 1.3-1.1 1.5-1.1 2 0 3.2.8.7 1.4 2.3 1.4 3.5-.1 2-.2 2-1.1.4-1.2-2.1-3.9-2.3-3.9-.2 0 .8.5 1.5 1.2 1.5.6 0 .8.3.5.6-.4.4-1.4.1-2.3-.7-1-.8-2.7-1.4-3.8-1.4-1.5 0-2.2-.7-2.4-2.4-.3-1.9-.6-2.1-1.3-1-.7 1.1-.9.9-.9-.7 0-1.1-.5-2.5-1.2-3.2-2-2 .4-1.3 2.6.7 1.2 1.1 3.3 2.2 4.8 2.6 2.1.6 2.7.3 3.4-1.7.4-1.2.7-2.6.6-3.1-.1-.4.5-.7 1.3-.7 2.3 0 1.8-1.7-.8-2.4-1.3-.3-3.4-1.4-4.8-2.6-1.3-1.1-2.8-2.3-3.4-2.8-2.9-2.4-13.5-9.2-14.3-9.2-.5 0-1.6-.8-2.5-1.8-1.5-1.7-1.5-2.6-.3-9.8.8-4.3 2-10.1 2.6-12.9.6-2.7 2.2-11.7 3.6-20 1.4-8.2 2.8-15.3 3.1-15.8 1.2-1.9 2.3.9 2.4 6.1zm92.8-.6c.1.5-.5.8-1.3.8-.9 0-1.2-.8-.8-2.7.5-2.5.6-2.5 1.3-.8.4 1.1.8 2.3.8 2.7zm-15.5.7c.3.5-.1 1.2-1 1.5-2 .8-2.9.1-1.9-1.3.8-1.3 2.2-1.4 2.9-.2zm10.6 1.9c0 1-.8 1.8-1.7 1.8-1 .1-3.6.4-5.8.8l-4 .7 2.4-2.1c1.4-1.2 3.3-1.9 4.3-1.7 1 .3 2.1.1 2.4-.4.9-1.5 2.4-1 2.4.9zm286 6.2l-.8 3.5-.1-3c-.1-2.3-.3-2.7-1.1-1.5-.6.9-1 1-1 .3 0-1 3.1-3.5 3.7-3 .1.1-.2 1.8-.7 3.7zm-295 3.1c0 .5-.4.9-1 .9-.5 0-1-.7-1-1.6 0-.8.5-1.2 1-.9.6.3 1 1 1 1.6zm27.3-.7c-.2.3-.3 1.1-.3 1.6 0 .7-.6.7-2 0-1.5-.8-2.6-.7-4.5.6-2.3 1.5-2.5 1.5-1.9 0 .3-.9 1.3-1.6 2.1-1.6s1.1-.4.8-1c-.4-.6.7-.9 2.7-.6 1.8.2 3.2.6 3.1 1zm266.1 3.1c-.4.8-.8 1.5-1 1.5-.2 0-.4-.7-.4-1.5s.4-1.5 1-1.5c.5 0 .7.7.4 1.5zm-3.9 2.3c-.3.3-1.1 0-1.8-.7-.9-1-.8-1.1.6-.5 1 .3 1.5.9 1.2 1.2zm.6 5.9c-1.2 2.1-2 2.9-1.9 1.8.2-1.1.9-2.6 1.6-3.3.6-.7 1.2-2.1 1.3-3 0-.9.3-1.2.5-.5.3.6-.4 2.9-1.5 5zm-2.1 5.9c0 .8-.4 1.4-.8 1.4s-.8-.9-.8-1.9c0-1.1.4-1.7.8-1.5.4.3.8 1.2.8 2zm-2.7 6.9c-.3.9-.8 1.4-1 1.1-.3-.3-.2-.9.2-1.5.9-1.6 1.5-1.3.8.4zM235.8 346c-.7 1.1-1.6 2-2 2-1.1 0-1-.9.5-2.5 1.8-2.1 2.9-1.8 1.5.5zm22.7-1c.3.5.1 1-.4 1-.6 0-1.1-.5-1.1-1 0-.6.2-1 .4-1 .3 0 .8.4 1.1 1zm109.5 1.1c0 .5-.4.9-1 .9-.5 0-1-.7-1-1.6 0-.8.5-1.2 1-.9.6.3 1 1 1 1.6zM227 348c0 .5-.5 1-1.1 1-.5 0-.7-.5-.4-1 .3-.6.8-1 1.1-1 .2 0 .4.4.4 1zm-27.2 4.5c-.3.3-.9-.2-1.2-1.2-.6-1.4-.5-1.5.5-.6.7.7 1 1.5.7 1.8zm8.6-1.4c-.3.6 0 1.6.7 2.1 1.2.8 1.1.9-.1.5-1.8-.4-2.7-3.7-1-3.7.6 0 .8.5.4 1.1zm37.1.8c.3.5.1 1.2-.5 1.6-.5.3-1-.1-1-.9 0-1.8.6-2.1 1.5-.7zm-29.5 3.6c.5-.3.8-1.1.5-1.6-.4-.5.5-.9 1.9-.9s2.6.4 2.6 1c0 .5-.8 1-1.8 1s-2.6 1.3-3.5 3c-1 1.6-2.3 3-2.9 3-.7 0-.6-.5.2-1.5 1.6-1.9.3-4-1.6-2.4-1.5 1.2-1.8.2-.8-2.6.6-1.5.8-1.5 2.5.1 1 .9 2.3 1.3 2.9.9zm157.5-.6c-.3.6-1.1 1.1-1.6 1.1s-.4-.6.3-1.4c1.4-1.6 2.4-1.3 1.3.3zm-108.7.2c-.2.6-.7 1-1.1 1-.4-.1-1.5-.1-2.4-.1-1.5 0-1.6-.2-.3-1 2-1.3 4.3-1.3 3.8.1zM366 355c0 .5-.4 1-1 1-.5 0-1-.5-1-1 0-.6.5-1 1-1 .6 0 1 .4 1 1zm-162.5 1c-.3.5-1.2 1-1.8 1-.7 0-.6-.4.3-1 1.9-1.2 2.3-1.2 1.5 0zm29.5-.7c0 .1.4 1.7 1 3.5.8 2.9.7 3.2-.5 2.2-.8-.7-1.5-1.9-1.5-2.6 0-.8-.5-1.4-1.1-1.4-.5 0-.7-.5-.4-1 .5-.9 2.5-1.5 2.5-.7zm11.5 2.8c-.5 1.5-.4 1.9.4 1.5 1.7-1.1 1.3 1-.4 2.4-1.3 1.1-1.4 1-.9-.4.8-2-.9-2.1-2.5-.2-1.1 1.3-1.5 1.2-3-.2-2.1-2-1.7-3.5.8-2.7.9.3 2.6-.2 3.7-1 2.5-1.9 2.7-1.9 1.9.6zm-23.9 0c.7 1.2-2.2 4.6-3.2 3.7-.8-.9.5-4.8 1.6-4.8.5 0 1.2.5 1.6 1.1zm143 3.5c-1.7 3.6-2.6 2.9-1.3-1.1.6-2 1.3-3.1 1.7-2.4.4.6.2 2.2-.4 3.5zM209 359c0 .5-.9 1-2 1s-2.3 0-2.7.1c-.4 0-.9-.4-1.1-1-.2-.6 1-1.1 2.7-1.1 1.7 0 3.1.4 3.1 1zm41.5 0c.3.6-.1.7-.9.4-1.8-.7-2.1-1.4-.7-1.4.6 0 1.3.4 1.6 1zm10.2.5c0 .8-.4 1.5-.9 1.5-.4 0-.8-.7-.8-1.5s.4-1.5.8-1.5c.5 0 .9.7.9 1.5zm109.3 3.1c0 .2-.7.4-1.5.4s-1.5-.4-1.5-1c0-.5.7-.7 1.5-.4.8.4 1.5.8 1.5 1zm-123.2 1.9c-2.9 2.5-7.8 3-8.6.7-.5-1.5 2.4-1.6 3.3-.2.4.7 1.8.4 3.8-.9 4.3-2.7 4.8-2.6 1.5.4zm227.8.3c-1.7 1.6-1.8 1.6-.5-.5.7-1.2 1.5-2 1.8-1.7.3.2-.3 1.2-1.3 2.2zm-263.6 2c1.3 1.1 1.2 1.2-.4.6-1.4-.5-1.7-.3-1.4.7.3.8 1.2 1.3 2.1 1.1.8-.1 1.8.2 2.2.8.3.5-.2 1-1.2 1-1.1 0-2.5.6-3.2 1.2-1.1 1.1-1.4 1-1.8 0-.3-.6-.9-1-1.4-.6-.5.3-.9 0-.9-.6 0-.7.8-.9 2-.5 2.4.7 2.5 0 .6-3.7-1.5-2.9-1-4.5.8-2.5.6.6 1.8 1.8 2.6 2.5zm45.2-.3c-.6 3.4-1.2 3.2-1.2-.6 0-1.6.4-2.8.9-2.5.4.3.6 1.7.3 3.1zM142 364.4c0 .3-.4.8-1 1.1-.5.3-1 .1-1-.4 0-.6.5-1.1 1-1.1.6 0 1 .2 1 .4zm109 .6c0 .5-.4 1-1 1-.5 0-1-.5-1-1 0-.6.5-1 1-1 .6 0 1 .4 1 1zm116 1.1c0 1.8-.2 2-1.6.8-1.1-.9-1.8-.9-2.2-.2-.5.7-1.2.6-2.2-.5-1.3-1.4-1.3-1.5 0-1 .8.3 2.4.2 3.5-.3 1.1-.4 2.1-.8 2.3-.8.1-.1.2.9.2 2zm7-.3c0 .9-.6 1.2-1.6.8-.9-.3-2-.6-2.5-.6-.6 0-.8-.4-.5-.8.8-1.3 4.6-.8 4.6.6zm-120.5.2c.3.5.1 1-.4 1-.6 0-1.1-.5-1.1-1 0-.6.2-1 .4-1 .3 0 .8.4 1.1 1zm7.5 1.6c0 .8-.4 1.2-1 .9-.5-.3-1-1-1-1.6 0-.5.5-.9 1-.9.6 0 1 .7 1 1.6zm100.5 1.4c.3.5-.1 1-1 1s-1.3-.5-1-1c.3-.6.8-1 1-1 .2 0 .7.4 1 1zm11.5.5c1.1 1.3 1 1.4-.4.9-.9-.3-1.6-1-1.6-1.5 0-1.3.6-1.1 2 .6zm-121.5.5c.3.5.4 1 .1 1-.2 0-1.2.3-2 .6-1.2.5-1.5.2-1-1 .7-1.8 2-2.1 2.9-.6zm219.6 1.3c-1 .9-1.1.8-.5-.6.3-1 .9-1.5 1.2-1.2.3.3 0 1.1-.7 1.8zm-102.4.9c-.3.8-.6.5-.6-.6-.1-1.1.2-1.7.5-1.3.3.3.4 1.2.1 1.9zm-3-.6c-.3.3-1.2.4-1.9.1-.8-.3-.5-.6.6-.6 1.1-.1 1.7.2 1.3.5zm-154.2 2.3c.3.5.1 1.2-.5 1.6-.5.3-1-.1-1-.9 0-1.8.6-2.1 1.5-.7zm31.5.1c0 .5-.4 1-1 1-.5 0-1-.5-1-1 0-.6.5-1 1-1 .6 0 1 .4 1 1zm115.4.5c-.4.8-1.1 1.5-1.6 1.5-.6 0-.5-.6.2-1.5.7-.8 1.4-1.5 1.6-1.5.2 0 .1.7-.2 1.5zm3.5 3.5c-.7.5-1.9.6-2.7.2-1.3-.4-1.1-.8.6-1.5 1.2-.6 2.3-1.5 2.3-2.1.1-.6.3-.3.6.8.3 1-.1 2.2-.8 2.6zm-241.4-2c.3.6-.1.7-.9.4-1.8-.7-2.1-1.4-.7-1.4.6 0 1.3.4 1.6 1zm249.9.5c-.4.8-1.3 1.5-2.1 1.5-1.3 0-1.3-.3-.3-1.5.7-.8 1.6-1.5 2.1-1.5s.6.7.3 1.5zM367 380c0 .5-.4 1-1 1-.5 0-1-.5-1-1 0-.6.5-1 1-1 .6 0 1 .4 1 1zm97.9 2.7c-1.2 2.1-2.7 4.2-3.2 4.8-1.1 1.1.9-2.9 3.1-6.3 2.4-3.7 2.5-2.5.1 1.5zm-406.9.2c1.4.9 3.7 2.3 5.3 3.1 1.6.8 2.3 1.6 1.6 2-.6.4-.9 1.1-.7 1.6.1.5-1.1.9-2.8 1-2.4.1-3.5-.4-4.2-2-.6-1.1-2.1-3.6-3.2-5.4-2-2.9-2-3.2-.4-2.5 1.1.3 3 1.4 4.4 2.2zm56-1.5c0 .8-.7 1.6-1.5 2-1.5.5-2.1-1.4-.8-2.7 1.1-1.2 2.3-.8 2.3.7zm18.5.6c.3.5 0 1-.7 1-1 0-.9.3.2 1.1 1.3.9 1.3 1 0 .6-1.7-.4-2.7-3.7-1.1-3.7.5 0 1.3.4 1.6 1zm-21.9 1.7c1.6 2.1 1.8 3.7.4 2.8-.6-.4-.8.6-.6 2.5.4 3.4-1 5.1-2.1 2.5-.3-1 0-2.1.8-2.6 1.2-.7 1.2-.9 0-.9-.8 0-1.1-.6-.7-1.6.3-.8.2-1.3-.3-1-1 .7-2.3-1.9-1.4-2.8 1.1-1.1 2.6-.6 3.9 1.1zm260.9.3c-.3.5-1.2 1-1.8 1-.7 0-.6-.4.3-1 1.9-1.2 2.3-1.2 1.5 0zm-4.5 4c0 .5-.2 1-.4 1-.3 0-.8-.5-1.1-1-.3-.6-.1-1 .4-1 .6 0 1.1.4 1.1 1zm-260 1.9c0 .5-.9 1.1-2 1.4-2.2.6-2.8-.8-.7-1.6 1.9-.8 2.7-.8 2.7.2zm263 0c0 .5-.9 1.1-2 1.4-2.2.6-2.8-.8-.7-1.6 1.9-.8 2.7-.8 2.7.2zm90 1c-1.3 2.4-3.1 3.7-2.8 1.9.3-1.1 2.7-3.7 3.6-3.8.1 0-.2.9-.8 1.9zm-386.6.9c.2.4-1 .8-2.7.9-3 .1-3 .1-.7-.7 1.4-.4 2.6-.8 2.7-.9.1-.1.4.3.7.7zm289.1 1.2c-.3.5-1.3 1-2.1 1s-1.2-.5-.9-1c.3-.6 1.3-1 2.1-1s1.2.4.9 1zM71 396.7c0 2-2.4 1.1-2.8-1-.2-1.2.1-1.5 1.2-1.1.9.3 1.6 1.3 1.6 2.1zm298.8-.9c.6 1.8-1.5 1.4-2.2-.4-.4-1-.1-1.4.6-1.2.6.2 1.4 1 1.6 1.6zm85.7.1c.3.5.1 1.2-.5 1.6-.5.3-1-.1-1-.9 0-1.8.6-2.1 1.5-.7zm-96.9 2.5c.3.8 1.4 1.6 2.5 1.9 1 .3 1.9 1 1.9 1.7 0 .6-.4.8-1 .5-.5-.3-1.7.3-2.7 1.4-2.1 2.5-3.7 1.7-2.1-.9 1-1.5 1-2.2 0-3.2-.6-.6-1.2-1.6-1.2-2 0-1.4 2-.9 2.6.6zm9.9.6c.3.5-.1 1-.9 1-.9 0-1.6-.5-1.6-1 0-.6.4-1 .9-1 .6 0 1.3.4 1.6 1zM79 402.1c0 .5-.4.9-1 .9-.5 0-1-.7-1-1.6 0-.8.5-1.2 1-.9.6.3 1 1 1 1.6zm286.8.4c-.3.3-.9-.2-1.2-1.2-.6-1.4-.5-1.5.5-.6.7.7 1 1.5.7 1.8zm6.2 2.5c0 .5-.5 1-1.1 1-.5 0-.7-.5-.4-1 .3-.6.8-1 1.1-1 .2 0 .4.4.4 1zm-7.3.6c-.3.3-1.2.4-1.9.1-.8-.3-.5-.6.6-.6 1.1-.1 1.7.2 1.3.5zm1.7 5.9c-.4.8-1 1.5-1.5 1.5-.4 0-.6-.7-.3-1.5.4-.8 1-1.5 1.5-1.5.4 0 .6.7.3 1.5zm-5.4 1.9c0 .3-.4.8-1 1.1-.5.3-1 .1-1-.4 0-.6.5-1.1 1-1.1.6 0 1 .2 1 .4zm8 5.7c0 .5-1.1.9-2.5.9-2.1 0-2.4-.2-1.3-1.4 1.3-1.4 3.8-1.1 3.8.5zm11.5-.1c.3.5-.3 1-1.4 1-1.2 0-2.1-.5-2.1-1 0-.6.6-1 1.4-1 .8 0 1.8.4 2.1 1zm-9 1c.3.5.1 1-.4 1-.6 0-1.1-.5-1.1-1 0-.6.2-1 .4-1 .3 0 .8.4 1.1 1zm-9.8 5.6c.3.8 1.2 1.3 1.9 1 .8-.3 1.1 0 .8.9-.3.7-1.2 1.6-1.9 1.9-.9.3-1.2 0-.8-1 .3-.9-.1-1.4-1.3-1.5-1.3 0-1.4-.2-.5-.6 1.1-.5 1.1-.7 0-1.4s-1.1-.9-.1-.9c.7 0 1.5.7 1.9 1.6zm22-1c-.3.3-1.2.4-1.9.1-.8-.3-.5-.6.6-.6 1.1-.1 1.7.2 1.3.5zM369 428c0 .5-.7 1-1.6 1-.8 0-1.2-.5-.9-1 .3-.6 1-1 1.6-1 .5 0 .9.4.9 1zm-11.3 2.1c.1 1.4-.3 1.9-1.3 1.5-.8-.3-1.4-.1-1.4.5s-.9.8-2.2.3c-3.1-.9-3.4-1.2-1.9-2.7.9-.9 1.3-.9 2 .1.6 1.1 1.8.6 4.6-1.8.1 0 .1.9.2 2.1zm-8.8 3.9c-.1 1-.2 1.1-.6.2-.7-1.8-2.3-1.5-2.4.5-.1 1-.4.4-.8-1.2-.5-2.2-.3-3.2.9-3.6 1.5-.6 2.9 1.3 2.9 4.1zm23.7-3.2c.1.7 0 .8-.3.2-.2-.5-.9-.8-1.4-.4-.5.3-.9 0-.9-.6 0-1.5 2.3-.7 2.6.8zm-6.6 1.7c1 1.3 1 1.9-.5 3.5-1 1.1-2.3 2-2.8 2-.6 0 0-.9 1.3-2 2.3-2 2.3-2.1.4-3.5-1-.8-1.4-1.5-.8-1.5.6 0 1.7.7 2.4 1.5zm-12.6 2.1c.9 2.2.8 2.3-1.4 2.1-1.1-.1-2-.2-2-.3 0-1.1 1.4-3.4 2-3.4.4 0 1.1.7 1.4 1.6zm7.9.2c-.2 1-1 1.9-1.8 1.9-1 0-1.1-.4-.2-1.9.7-1 1.5-1.8 1.8-1.8.4 0 .5.8.2 1.8zm6.8 4.4c-3.4 2.6-4.8 2.2-2.1-.7 1.2-1.3 2.7-2.2 3.3-1.8.6.4.1 1.4-1.2 2.5zm9.4-2.2c.3.5.1 1-.4 1-.6 0-1.1-.5-1.1-1 0-.6.2-1 .4-1 .3 0 .8.4 1.1 1zm-20.5.9c0 1.2-4.1 2.2-5.4 1.3-.6-.4.3-1 1.9-1.3 1.7-.4 3.1-.7 3.3-.8.1 0 .2.3.2.8zm15.9 6.1c0 1-.4.8-1.2-.6-.7-1.2-1.8-1.9-2.7-1.6-1.3.5-1.3.3-.1-1.1 1.3-1.6 1.5-1.6 2.7 0 .7 1 1.3 2.5 1.3 3.3zm7.6-4c.3.5.1 1-.4 1-.6 0-1.1-.5-1.1-1 0-.6.2-1 .4-1 .3 0 .8.4 1.1 1zm-21 2.9c.8 2.1.2 2.1-2.3.1-2.1-1.8-2.2-1.9-.3-1.7 1.1.1 2.3.8 2.6 1.6zm7.4 1.8c.2.2-.3.3-1.1.3-.9 0-1.9-.7-2.2-1.6-.6-1.5-.4-1.5 1.1-.3 1 .7 2 1.5 2.2 1.6zm14.1.3c0 .5-.5 1-1.1 1-.5 0-.7-.5-.4-1 .3-.6.8-1 1.1-1 .2 0 .4.4.4 1zm-22.4 1.2c.4.7.4 1-.1.6-.4-.4-1.4-.3-2.2.3-1.3 1.1-1.9-.2-.6-1.4 1-1.1 2.1-.8 2.9.5zm29.4.2c0 .2-.7.7-1.6 1-.8.3-1.2.2-.9-.4.6-1 2.5-1.4 2.5-.6zm-25 1c0 .3-.5 1.7-1 3.1-.9 2.3-1.3 2.5-2.5 1.5-1-.9-1.5-.9-1.5-.1 0 .6-.6 1.1-1.4 1.1-.9 0-1.2-.7-.9-2.1.4-1.4 1.2-1.9 2.4-1.6 1.2.3 1.9 0 1.9-.9 0-.8.7-1.4 1.5-1.4s1.5.2 1.5.4zm5 0c0 .2-.7.7-1.6 1-.8.3-1.2.2-.9-.4.6-1 2.5-1.4 2.5-.6zm-21 2.8c0 1.8-.2 2-.9.8-.6-.8-.7-1.8-.5-2.2.9-1.4 1.4-.9 1.4 1.4zm28.2-.2c1 0 1.8.5 1.8 1.1 0 .7 1 2 2.2 3 1.1 1.1 1.7 1.9 1.1 1.9-.5 0-2.5-1.4-4.3-3-1.8-1.7-4-3-4.7-3-.8 0-1.1-.5-.7-1.1.4-.8.9-.8 1.7 0 .6.6 1.9 1.1 2.9 1.1zm-6.5-.3c-.4.3-.2 1.2.4 2 .7.8.8 1.3.1 1.3-.5 0-1.5-.6-2.1-1.4-.9-1.1-.9-1.5.1-1.9 1.9-.8 2.2-.8 1.5 0zm-16 3.3c-.1 1.1.6 1.4 2.6 1.2 2.8-.3 2.8-.3 1.1 2.3l-1.6 2.5-2.3-2.4c-1.5-1.6-3.1-2.4-4.4-2.1-2.4.4-2.6 0-1-1.8 1.7-1.8 5.9-1.5 5.6.3zm11.3 2c-1.3 2.4-1.4 2.4-3 .5-1.1-1.3-1-1.4.3-1 .8.4 1.8.2 2.2-.4 1.1-1.9 1.6-1.2.5.9zm11-.5c-.7.8-1.7 1.5-2.2 1.5-1.1 0 1.4-2.9 2.6-3 .5 0 .3.7-.4 1.5zm11 .8c1 .4.8.6-.7.6-1.6.1-2.3-.5-2.3-1.7 0-1 .3-1.3.8-.6.4.6 1.4 1.4 2.2 1.7zm-17.5-.3c.3.5.2 1-.4 1-.5 0-1.3-.5-1.6-1-.3-.6-.2-1 .4-1 .5 0 1.3.4 1.6 1zm.8 3.3c.4-.3.7-.2.7.4 0 1.8-1.2 2.2-2.6.8-1.8-1.8-1.8-3.1-.1-1.6.8.6 1.7.8 2 .4zm6.7.1c0 .3-.4.8-1 1.1-.5.3-1 .1-1-.4 0-.6.5-1.1 1-1.1.6 0 1 .2 1 .4zm2.7 1.8c-.3.8-.6.5-.6-.6-.1-1.1.2-1.7.5-1.3.3.3.4 1.2.1 1.9zm3.3-1.4c0 .5 1 1.3 2.2 1.9 1.5.6 1.8 1.2 1 1.7-.7.4-1.2.2-1.2-.4 0-.6-.4-.9-.8-.6-.4.2-1.3-.4-2-1.5s-.8-1.9-.2-1.9c.5 0 1 .4 1 .8zm-8 3.7c-.7.9-1.5 1.3-1.7 1.1-.7-.7.7-2.6 1.9-2.6.6 0 .6.6-.2 1.5zm-5.6 1.3c.7 1.2-1.2 3.8-2.1 2.9-.4-.5-.1-1.3.7-1.8 1.1-.8.9-.9-.9-.4-1.6.5-2.1.4-1.7-.4.8-1.3 3.3-1.5 4-.3z"/><path d="M181 45c0 .5.5 1 1 1 .6 0 1-.5 1-1 0-.6-.4-1-1-1-.5 0-1 .4-1 1zM250.5 62c.3.5.8 1 1.1 1 .2 0 .4-.5.4-1 0-.6-.5-1-1.1-1-.5 0-.7.4-.4 1zM289.3 61.4c0 1.1.5 1.2 1.6.6.9-.4 1.9-.7 2.3-.7.3.1 1-.1 1.4-.6.4-.4-.6-.7-2.3-.7-1.9 0-3 .5-3 1.4zM293 70.2c0 .8.7 2.1 1.5 2.8 1.9 1.6 1.9.1 0-2.4-1.2-1.6-1.5-1.7-1.5-.4zM299 74.1c0 .5.5.7 1 .4.6-.3 1-.8 1-1.1 0-.2-.4-.4-1-.4-.5 0-1 .5-1 1.1zM296.8 81c-.3 1.6-.1 3 .4 3 .4 0 .8-1.4.8-3 0-1.7-.2-3-.4-3s-.6 1.3-.8 3zM298.5 87c-1.6.6-1.4.8 1.3.7 1.7 0 3.2-.4 3.2-.9 0-1-1.8-.9-4.5.2zM290.6 98.5c.4.8.7 1.5.9 1.5.2 0 .5-.7.9-1.5.3-.9 0-1.5-.9-1.5s-1.2.6-.9 1.5zM301.8 102.1c-2.4 1.4-2.3 2.8.2 2.2 1.1-.3 2-1.2 2-1.9 0-1.6 0-1.6-2.2-.3zM299 106.8c0 1.2 1.9 2.6 2.6 1.9.2-.2-.2-1-1.1-1.7-.9-.8-1.5-.8-1.5-.2zM292 109c0 .5.5 1 1 1 .6 0 1-.5 1-1 0-.6-.4-1-1-1-.5 0-1 .4-1 1zM285 121.5c0 .8.2 1.5.4 1.5s.6-.7 1-1.5c.3-.8.1-1.5-.4-1.5-.6 0-1 .7-1 1.5zM277.5 125c-.3.5-.1 1 .4 1 .6 0 1.1-.5 1.1-1 0-.6-.2-1-.4-1-.3 0-.8.4-1.1 1zM279 128.3c0 1.9 1.6 3.1 2.4 1.8.3-.5-.1-1.4-.9-2.1-1.2-1-1.5-1-1.5.3zM282.5 130.2c-1 2.5-.1 4.4 2.5 5.1 2 .5 2 .4.7-1.1-.8-.9-1.7-2.6-1.9-3.7-.5-1.8-.6-1.8-1.3-.3zM299.7 132.1c.7.7 1.5 1 1.8.7.3-.3-.2-.9-1.2-1.2-1.4-.6-1.5-.5-.6.5zM278.5 134c.3.5.8 1 1.1 1 .2 0 .4-.5.4-1 0-.6-.5-1-1.1-1-.5 0-.7.4-.4 1zM301 135.1c0 .5.5.7 1 .4.6-.3 1-.8 1-1.1 0-.2-.4-.4-1-.4-.5 0-1 .5-1 1.1zM280 136.4c0 .2.7.6 1.5 1 .8.3 1.5.1 1.5-.4 0-.6-.7-1-1.5-1s-1.5.2-1.5.4zM293 141.5c0 .8.2 1.5.4 1.5s.6-.7 1-1.5c.3-.8.1-1.5-.4-1.5-.6 0-1 .7-1 1.5zM281.6 144.4c.3.9 1.1 1.6 1.6 1.6 1.3 0 .5-2.3-1-2.8-.7-.2-1 .2-.6 1.2zM293 199.4c0 .2.7.6 1.5 1 .8.3 1.5.1 1.5-.4 0-.6-.7-1-1.5-1s-1.5.2-1.5.4zM301 218c0 .5.5 1 1.1 1 .5 0 .7-.5.4-1-.3-.6-.8-1-1.1-1-.2 0-.4.4-.4 1zM92 81.6c-4.9 3.9-6.2 5.1-4.2 4 1.5-.9 1.5-.1 0 2.7-1.3 2.5-1.8 5.8-.7 5.2.9-.6 2.1 2.4 1.3 3.6-.3.5-.1.9.4.9 1.7 0 2.2-1.3 1-2.7-.6-.7-.8-1.7-.4-2.1.4-.4 1.6.3 2.5 1.4 1.7 2.1 1.8 2.1 2.9.3 1.6-2.6 1.5-3.4-.3-1.9-.9.7-1.9 1-2.2.6-.4-.4-.1-1.1.7-1.7 1.1-.7.6-.8-1.4-.3-2.9.7-2.9.7-1.3-1.7 1-1.3 1.7-3.1 1.7-4.1 0-1.2.8-1.8 2.2-1.8 1.6 0 1.9-.3 1.1-1.1-.9-.9-.6-1.6 1-3 4.1-3.4.2-1.9-4.3 1.7zM108.5 80.6c-.5 1.5-1.5 2.1-3.6 2.1-3.6 0-4.3.6-3.4 3.2.8 2.5 1.8 2.6 3.9.6.8-.8 1.8-1.5 2.3-1.5.9 0 4.3-3.6 4.3-4.6 0-.3-.4-.3-.9 0-.5.4-1.2 0-1.4-.6-.4-.8-.8-.5-1.2.8zM106 88.5c-1.2 1.4-.6 3.5 1 3.5.6 0 .9-1.1.8-2.5-.3-2.9-.2-2.9-1.8-1zM100 91c0 .5.7 1 1.5 1s1.5-.5 1.5-1c0-.6-.7-1-1.5-1s-1.5.4-1.5 1zM97.6 96.7c-.6 1.4-.5 1.5.5.6.7-.7 1-1.5.7-1.8-.3-.3-.9.2-1.2 1.2zM214.5 200.3c-1.5 5.2-1.4 6.6 1.4 10.3 4.9 6.7 5.9 7.3 12.7 6.9 6.5-.3 10.7-2.2 9.9-4.3-.3-.8-.5-2.6-.5-4 0-1.9-.3-2.3-.9-1.3-.7 1.1-1.3 1-3.4-.4-1.5-.9-3-1.4-3.5-1.1-.5.3-2.1-.3-3.5-1.4-1.4-1.1-3.2-1.7-4.1-1.4-.9.3-1.6.1-1.6-.4 0-.6.9-1.4 2-1.7 3.4-1.1 2.2-2-3-2.2-3.3-.1-5.2.2-5.5 1zM236.6 241.5c.4.8.8 1.5 1 1.5.2 0 .4-.7.4-1.5s-.4-1.5-1-1.5c-.5 0-.7.7-.4 1.5zM213.5 248c-.3.5-.1 1 .4 1 .6 0 1.1-.5 1.1-1 0-.6-.2-1-.4-1-.3 0-.8.4-1.1 1zM214.5 252c-.3.5-.1 1 .4 1 .6 0 1.1-.5 1.1-1 0-.6-.2-1-.4-1-.3 0-.8.4-1.1 1zM194.8 259.7c.7.3 1.6.2 1.9-.1.4-.3-.2-.6-1.3-.5-1.1 0-1.4.3-.6.6zM190.5 262c.3.5.8 1 1.1 1 .2 0 .4-.5.4-1 0-.6-.5-1-1.1-1-.5 0-.7.4-.4 1zM195.7 263.1c.7.7 1.5 1 1.8.7.3-.3-.2-.9-1.2-1.2-1.4-.6-1.5-.5-.6.5zM203.6 264.5c-.5 1.3-.2 1.6 1.1 1.1 1.5-.6 1.6-.5.6.5-.7.7-1.3 1.7-1.3 2.1 0 .5.6.8 1.3.7.6-.1 2 .1 3 .6 3.1 1.3 2.8 0-.7-3.4-2.8-2.8-3.4-3-4-1.6zM218.5 270c-.3.6.1.7.9.4 1.8-.7 2.1-1.4.7-1.4-.6 0-1.3.4-1.6 1zM234 272.5c0 .8 0 1.8-.1 2.2-.1 1.5 1.9 1.3 3.5-.2 2.3-2.3 2-3.5-.9-3.5-1.6 0-2.5.6-2.5 1.5zM219.5 273c.3.5.8 1 1.1 1 .2 0 .4-.5.4-1 0-.6-.5-1-1.1-1-.5 0-.7.4-.4 1zM228 274.1c0 .5.5.7 1 .4.6-.3 1-.8 1-1.1 0-.2-.4-.4-1-.4-.5 0-1 .5-1 1.1zM217.5 277.6c1.3.9 2.3 1 3.6.3 2.5-1.3 2.5-1.4-1.7-1.5-3.3-.1-3.5.1-1.9 1.2zM227.4 278.1c-.4.8 0 .9 1.5.4 1.2-.4 2.1-.2 2.1.4 0 .6.4 1.1 1 1.1.5 0 .7-.7.4-1.5-.7-1.7-4-2-5-.4zM237.5 278c-.3.5.1 1 .9 1s1.8-.5 2.1-1c.3-.6-.1-1-.9-1s-1.8.4-2.1 1zM220.8 280.6c-.5.4-.8 1.6-.8 2.8 0 1.4.3 1.7 1.1.9.6-.6.9-1.9.7-2.8-.1-.9-.6-1.3-1-.9zM229 283.4c0 .7 1.1 1.7 2.5 2 1.7.4 2.2 1.1 1.8 2.2-.4 1.2-.1 1.5 1.2 1.3 1-.2 2.2-1.4 2.6-2.7.6-1.5.5-2.1-.1-1.7-.6.3-1 .1-1-.5 0-.7-.7-.9-1.6-.6-.8.3-2.4.1-3.5-.4-1.5-.8-1.9-.7-1.9.4zM223 287c0 .5.4 1 .9 1 .6 0 1.3-.5 1.6-1 .3-.6-.1-1-.9-1-.9 0-1.6.4-1.6 1zM230.5 293c.3.5.8 1 1.1 1 .2 0 .4-.5.4-1 0-.6-.5-1-1.1-1-.5 0-.7.4-.4 1zM127.5 389c.3.5.8 1 1.1 1 .2 0 .4-.5.4-1 0-.6-.5-1-1.1-1-.5 0-.7.4-.4 1zM498 210c0 .5.5 1 1 1 .6 0 1-.5 1-1 0-.6-.4-1-1-1-.5 0-1 .4-1 1zM385 244.1c0 .5.5.7 1 .4.6-.3 1-.8 1-1.1 0-.2-.4-.4-1-.4-.5 0-1 .5-1 1.1zM380.8 247.7c.7.3 1.6.2 1.9-.1.4-.3-.2-.6-1.3-.5-1.1 0-1.4.3-.6.6zM384 271.2c0 2.5.3 2.9 1 1.8 1.3-2 1.3-5 0-5-.5 0-1 1.5-1 3.2zM338 283.4c0 .2.7.9 1.5 1.6 1.2 1 1.5 1 1.5-.4 0-.9-.7-1.6-1.5-1.6s-1.5.2-1.5.4zM313.7 284.9c.4.3 1 1 1.4 1.4.3.4 1.1.2 1.7-.5.8-1 .5-1.3-1.5-1.4-1.3-.1-2.1.1-1.6.5z"/><path d="M343 288.6c-.8 1.9-1.6 3.4-2 3.4-.8 0-3.6-3.4-4.2-5.1-.4-.9-.8-.3-1.3 1.4-.5 1.8-1.2 2.6-2.1 2.3-.8-.3-1.4 0-1.4.7s-.7.3-1.5-.7c-1.4-1.8-1.5-1.8-1.5-.2 0 1.2-.5 1.6-1.9 1.1-1.4-.4-2 .1-2.4 2.5-.4 1.6-1.1 3-1.8 3s-.8-1.1-.4-3.1c.6-2.5.4-3-.6-2.3-.7.4-4 .7-7.4.7-6.3-.1-8.6 1.2-5.7 3.3 1.4 1 1.3 1.1-1.1.7-2.6-.5-3.8.9-1.7 2.2 1.2.7 1.4 3.6.3 3.4-2.2-.4-2.4.3-.9 2.6.9 1.4 1.4 3 1.1 3.5-.9 1.4.9 1.2 2.4-.3.8-.6.5.1-.5 1.7-1.6 2.5-1.9 2.7-2.5 1-.3-1.1-.5-2.2-.2-2.7.6-1-1.5-.9-2.2.2-.3.5-.1 1.2.5 1.6.6.4.8 1.1.4 1.6-.6 1 1.3 3.9 2.6 3.9.5 0 1.3-1.2 1.8-2.8.6-1.5 1.1-2.1 1.1-1.4.1.7.6 1 1.2.6.6-.3 1.5-.1 1.9.6 1.1 1.7 4.2-5.4 3.4-7.5-.6-1.4.7-2.1 1.8-1 .3.3-.8 4.3-2.3 9-1.6 4.7-3.3 11.3-3.9 14.7-.7 3.4-1.6 7-2.1 8-.8 1.4-.6 1.8.9 1.8 1.4 0 2.2-1.6 3.7-7.8 1-4.2 2.7-9.6 3.7-12 1-2.4 1.8-5.8 1.8-7.5.1-2.8.2-3 1.2-1.3 1.7 3.1.3 15.3-3.1 26.6-1.8 5.8-3.6 11.4-4.2 12.5-1.1 2.4-7.5 26.9-9.9 38-3.8 17.5-7.5 28.4-10.2 30.3-2.4 1.7-1 3.6 3.7 5.2 2.5.8 3.8.8 5.2 0 1.3-.9 2.6-.9 4.7 0 2.8 1 2.8 1.1 1 2.5-1 .8-2.9 1.5-4.1 1.5-3.3 0-3.7 1.7-.5 2.3 1.5.3 3 0 3.4-.6.5-.8.8-.6.8.4 0 .9.6 1.9 1.4 2.2.9.4 1.4 1.7 1.3 3.4-.3 3.1-1.9 3.5-8.3 1.6-3.3-1-10.1-2.2-19.9-3.6-1.1-.2-4.2-.7-7-1.2-6.6-1.1-9.5-1.1-9.6 0 0 1.4 3.7 2.3 9.8 2.4 4 .1 5.7.6 7.3 2.3 1.1 1.2 1.8 2.8 1.6 3.5-.3.7-.1 1.5.4 1.8.6.4 1-.5 1-1.8 0-1.4.7-2.8 1.6-3.1.8-.3 1.2-.2.9.4-.3.6-.1 1 .6 1s.6.8-.5 2.5c-1 1.5-1.2 2.5-.6 2.5s.8.4.5 1c-.3.5-.2 1 .4 1 .6 0 1.3-1.6 1.7-3.5.3-1.9 1-3.8 1.5-4.1.5-.3 3.7.4 7.2 1.6 8.8 3.1 16.7 5.1 17.7 4.5.5-.3 1.2-2 1.5-3.8.4-1.7 1.2-3.8 1.7-4.5.6-.6.8-1.2.4-1.2-.3 0 .3-.9 1.5-2.1 1.5-1.5 1.9-2.8 1.4-4.6-.4-1.7-.1-2.9.7-3.4.7-.4.9-1.1.5-1.5-.4-.4-1.9.3-3.4 1.7-1.4 1.3-2.3 1.8-1.9 1.1.4-.7.1-1.5-.9-1.8-2.2-.9-2.8.1-1.5 2.5 1.3 2.5.2 2.8-1.6.3-1.1-1.4-1.5-1.4-2.3-.3-.6.9-1.1 1-1.5.2-.4-.6-.1-1.1.6-1.1.7-.1.2-.9-1.1-2.1-1.6-1.3-2.1-2.3-1.4-3 .7-.7 1.4-.5 2.3.6 1.6 2 3.6 1.9 4.4-.1.4-.9 1.2-1.4 2.1-1 4.4 1.8 4.8 1.6 2.1-.8-1.6-1.4-3.3-2.6-3.8-2.6-.4 0-.8-.5-.8-1.1 0-.7-.8-1.8-1.7-2.6-1-.8-1.2-1.2-.5-.8.7.4 1.9.1 2.7-.5 1.2-1 1.8-1 3.1.1 1.4 1.2 1.3 1.4-.8 2.2-2.2.8-2.3.9-.4 2.3 2.2 1.6 4.6 1.9 4.6.5 0-.5-.6-1.1-1.2-1.3-.7-.3.6-.8 3-1.2 2.4-.3 4-1.1 3.7-1.6-.3-.6-1.7-.7-3-.4-1.4.3-2.6 0-3.2-.8-.8-1.3-4.7-3.8-5.9-3.8-.3 0-.4.7 0 1.5.4 1-.1 1.5-1.4 1.5-2 0-2.8-2.4-1.1-3.4.5-.4 1.2-2.4 1.6-4.6.7-4.1 2.1-5.2 3.1-2.5.4.8 1.1 1.2 1.6.9.6-.4.5-1-.3-1.4-1-.7-1-1.2.1-2.5.7-.9 1.9-1.4 2.6-1.1.8.3 2.1-.5 3-1.7 1-1.3 1.8-1.7 2.1-1.1.5 1.3 4.3.7 4.3-.7 0-.9-1.4-1.3-3.7-1-1.5.2-1.7-1.5-.3-2.4.5-.3.7-1.2.3-2-.3-1 .1-1.5 1.3-1.5 1.8-.1 1.8-.1.2-1.4-2.1-1.5-2.3-2.8-.5-2.5 4.6.6 6-1 3.2-3.7-1.9-2-1.9-3.4.1-3.4.9 0 1.2.5.8 1.2-.5.7-.2.9.8.5.9-.3 2-.1 2.5.4s.9 0 1-1.2c.1-1.2-.1-1.9-.4-1.6-1 1.1-3-1.8-2.5-3.6.3-1.1-.1-2.3-.9-2.8-1.1-.7-.9-1 1-1.5l2.4-.7-2.3-1.7-2.3-1.8h2.8c3 0 5.1-2.2 3.2-3.4-.6-.4-1.6-.3-2 .1-1.1 1.1-4.9.2-4.1-1 .3-.5 1-.7 1.5-.4.5.4.9.1.9-.4 0-.6.9-1.1 2-1.1 3.8 0 5 6.9 1.1 7.1-1.1 0-1 .3.7 1.1 2.9 1.4 3.8.5 5.6-5.5 1.2-4.1 1.2-4.7-.1-4.7-1 0-1.2-.6-.8-2.1.5-1.5.4-1.9-.4-1.5-.6.4-1.1 0-1.1-.8 0-1-.9-1.6-2.2-1.6-1.6 0-1.9-.3-1-.8.7-.5 1-1.6.6-2.8-.5-1.6-.2-1.5 1.8.6 1.4 1.4 2.4 2.8 2.1 3.2-.2.4.5 1.2 1.6 1.7 1.6.9 2.1.7 2.6-.9.3-1.1.3-2.5 0-3.1-.4-.6.3-2.1 1.4-3.3 1.9-2.1 2-2.4.6-3-.9-.3-1.3-1.1-1-1.6.4-.6.3-1-.2-.9-2.2.4-3.1-.3-3.5-2.6-.4-1.7-.1-2.5.8-2.5.8 0 1.4-.7 1.4-1.5s.6-1.5 1.4-1.5c.9 0 1.2-.7.9-1.9-.3-1.2-1.4-1.8-3.5-1.9-3.4-.1-6.9 2.5-5 3.7.6.3.8 1.1.4 1.6-1.4 2-3 1.4-4-1.5-.9-2.3-.8-2.8.3-2.4.8.4 2-.7 3-2.6 1.4-2.7 1.8-3 3.2-1.8 1.4 1.1 1.6 1.1 1.1-.4-.9-2.2.3-3.1 1.6-1.2 1 1.3 1.4 1.2 2.5-.9.7-1.4 2.3-2.8 3.4-3.1 3.3-.8 3.2.1-.2 1.9-3.7 1.9-3.9 2.8-.6 4.9 2.3 1.5 2.5 1.5 3.3-.2.6-.9 1.3-3.1 1.6-4.9.4-1.7 1.4-3.4 2.2-3.7 1-.4 1.3-1.3.9-2.6-.4-1.2-.2-2.6.3-3.3 1.3-1.5 1-6.7-.3-6.7-.5 0-4.5-.2-8.7-.3-8-.2-8.7 0-6.6 2.1.9.9.9 1.2 0 1.2-.6 0-1.6-.9-2.2-1.9-.8-1.6-.6-2.3 1.2-3.5 1.2-.8 2.5-1.3 3-1 .4.3.8-.9.8-2.6 0-2.7-.3-3-2-2.5-2.7.8-2.6-.9.2-2.7 1.8-1.2 1.9-1.6.6-2-1-.4-1.9.4-2.8 2.8zm-5 4.4c0 .6 1.1.8 2.6.4 1.9-.5 2.5-.4 2 .5-.4.6-1.5 1.1-2.4 1.1-1.5 0-1.5.2-.2 1 1.2.7 1.2 1.2.2 2.2-.9.9-1.2.9-1.2-.1 0-.8-.7-1-2.2-.6-1.7.6-2 .4-1.5-1 .4-.9.7-2.3.7-3.1 0-.8.5-1.4 1-1.4.6 0 1 .5 1 1zm-26 1c0 .5-.2 1-.4 1-.3 0-.8-.5-1.1-1-.3-.6-.1-1 .4-1 .6 0 1.1.4 1.1 1zm4 2c0 .5-.4 1-.9 1-.6 0-1.3-.5-1.6-1-.3-.6.1-1 .9-1 .9 0 1.6.4 1.6 1zm4 0c0 .5-.4 1-1 1-.5 0-1-.5-1-1 0-.6.5-1 1-1 .6 0 1 .4 1 1zm-2.7 3.4c.9.7 1.7 1.7 1.7 2.2 0 .4-.5.3-1.2-.4-1.7-1.7-2.6-1.5-2.4.4.2 2.5-1.7 2.7-3.2.3-1.1-1.8-1.1-2 .5-1.7 1 .2 1.7-.2 1.6-1-.4-1.5.7-1.5 3 .2zm18.6.5c1.5 1 .8 4.1-1 4.1-.6 0-.9-.6-.6-1.4.3-.7 0-1.9-.6-2.5-1.3-1.3.2-1.5 2.2-.2zm-10.6.8c-.7.2-1.9.2-2.5 0-.7-.3-.2-.5 1.2-.5s1.9.2 1.3.5zm27.4 1.3c1.3 1.4 2 1.7 3 .8 1-.8 1.3-.6 1.3.8 0 3.6-1.4 4.6-3.6 2.4-2.7-2.7-4.4-4.8-4.4-5.5 0-1.2 2.1-.4 3.7 1.5zm-41.7 2.3c0 2-.1 2-1.6.5-.9-.9-1.3-2.1-.9-2.7 1-1.6 2.5-.3 2.5 2.2zm2.2 2.9c-.7.7-1.2.8-1.2.2 0-1.4 1.2-2.6 1.9-1.9.2.3-.1 1.1-.7 1.7zm36.3-.2c.3.5-.1 1-.9 1-.9 0-1.6-.5-1.6-1 0-.6.4-1 .9-1 .6 0 1.3.4 1.6 1zm6 3.8c-.8.8-2.5-1-2.5-2.6 0-1.3.2-1.3 1.4.4.8 1 1.3 2.1 1.1 2.2zm-10.1 3.4c.7.5.5.8-.6.8-2.1 0-3.2-1.6-2.2-3.2.6-.9.9-.8 1.2.2.3.8 1 1.8 1.6 2.2zm4.1-1.2c-.3.5-1.1 1-1.6 1-.6 0-.7-.5-.4-1 .3-.6 1.1-1 1.6-1 .6 0 .7.4.4 1zm3 5c.3.5.1 1-.4 1-.6 0-1.1-.5-1.1-1 0-.6.2-1 .4-1 .3 0 .8.4 1.1 1zm-7.2 18c.9 0 1.7.4 1.7 1 0 .5-.4 1-1 1-.5 0-.7.6-.4 1.4.3.8.1 1.7-.5 2.1-.7.4-1.1-.3-1.1-1.8 0-2.1-2.6-5.7-3.3-4.6-.2.2-1.5 2.2-3 4.5-3 4.5-3.4 6.4-1.2 6.4.8 0 1.5.6 1.5 1.4 0 .8.6 1.6 1.3 1.9.9.3.9.8-.2 1.8-.8.8-1.1.9-.8.3.4-.7-.1-1.8-1-2.5-1.5-1.2-1.6-1.2-1 .4.5 1.3.3 1.7-.5 1.4-.7-.2-1.1-1.3-1-2.3.3-1.5.1-1.7-.9-.7-2 2-3.4 1.5-1.7-.5 2.4-2.7 5.1-10.6 3.9-11-2.3-.8-1-2.2 1.4-1.6 1.7.4 2.5.2 2.5-.6 0-.9.6-.8 1.8.3 1 1 2.6 1.7 3.5 1.7zm-11.8 5c-.3.5-1 1-1.6 1-.5 0-.9-.5-.9-1 0-.6.7-1 1.6-1 .8 0 1.2.4.9 1zm-2.2 17.6c-.2.7-1.3 1-2.4.7-2.3-.6-1.8-1.9.9-1.9 1.1 0 1.8.5 1.5 1.2zm-1.3 3.8c0 1.1-1.9 1.5-2.5.6-.3-.5.1-1 .9-1 .9 0 1.6.2 1.6.4zm-2 3.6c1.2.7 1 .9-.8.7-1.2 0-2.2-.5-2.2-.9 0-1.1 1.2-1 3 .2zm-1.5 3.4c.8.7 1.2 1.6.9 1.8-.2.3.2 1.1 1.1 1.8.8.7 1.5 1.7 1.5 2.3 0 .5-.9.2-2-.8s-2-2.4-2-3.2c0-.7-.4-1.3-1-1.3-.5 0-1-.5-1-1 0-1.4.9-1.2 2.5.4zm.2 13.7c-1.1.7-1.6 1.7-1.2 2.9.3 1.1 0 2-1.1 2.4-1.2.4-1.5.2-1-.9.3-.9 0-1.5-.9-1.5-.8 0-1.5.5-1.5 1.1 0 .5-.5.7-1.1.3-.8-.5-.7-.9.3-1.5s1.4-1.8 1.1-3.6c-.4-2.6-.3-2.7 1-1 1.2 1.4 1.6 1.5 2.6.3.9-1.1.7-1.5-.9-1.9-1.1-.3-2-1.3-2-2.2 0-1.2.8-.8 3.3 1.5 2.9 2.8 3 3.2 1.4 4.1zM321 390c0 .5-.4 1-1 1-.5 0-1-.5-1-1 0-.6.5-1 1-1 .6 0 1 .4 1 1zm-6 24.9c0 1.2-2 2.5-2.7 1.8-.7-.7.6-2.7 1.8-2.7.5 0 .9.4.9.9zm0 11.5c0 .3-.4.8-1 1.1-.5.3-1 .1-1-.4 0-.6.5-1.1 1-1.1.6 0 1 .2 1 .4zm4.3 3.2c-.4 1-1 1.1-2.4.3-2.4-1.2-1.6-2.9 1-2.2 1.2.3 1.7 1.1 1.4 1.9zm-3.9 6.9c.3.9 0 1.5-.9 1.5-1.6 0-2.7-1.4-1.8-2.4 1-1 2.1-.7 2.7.9z"/><path d="M338 287c0 .5.5 1 1.1 1 .5 0 .7-.5.4-1-.3-.6-.8-1-1.1-1-.2 0-.4.4-.4 1zM348.6 287.5c-1.9 1.4-1.9 1.5-.1 3.5 1 1.1 1.3 2 .7 2-.5 0-.8.9-.5 2.1.3 1.1 1.1 1.8 1.7 1.6 5-2.1 5.2-2.1 3.7-.4-1.6 2-1.1 2.1 2.3.6 1.4-.7 2.3-1.5 2.1-2-.3-.4.1-1.4.9-2.2.8-.8 1.3-1.7 1-2-.8-.8-5.9.3-6.2 1.4-.6 1.4-2.2 1.1-2.2-.5 0-.8-.6-1.6-1.2-1.9-.8-.2-.9-.8-.4-1.3s1.1-.4 1.3.3c.5 1.5 5.3 1.8 5.3.4 0-.5-.8-1.1-1.7-1.4-1-.2-2.5-.7-3.3-1.1-.8-.3-2.4.1-3.4.9zM501.7 295.4c-.4 1-.5 2.1-.2 2.4.9.9 1.7-.6 1.3-2.5-.3-1.7-.4-1.7-1.1.1zM299 311c0 .5.5 1 1 1 .6 0 1-.5 1-1 0-.6-.4-1-1-1-.5 0-1 .4-1 1zM309.5 315c.3.5 1 1 1.6 1 .5 0 .9-.5.9-1 0-.6-.7-1-1.6-1-.8 0-1.2.4-.9 1zM309.9 318.2c-.1.7 0 2.3 0 3.4.2 1.4-.5 2.3-1.8 2.7-1.4.3-1.9 1-1.5 2.1.7 1.9 2.8 2.2 2.1.3-.2-.6.2-1.7.8-2.2 1.7-1.4 2.7-6.2 1.5-7-.5-.3-1 0-1.1.7zM303.7 323.1c.6 2.3.9 2.4 1.6.5.3-.8 0-1.7-.7-1.9-1-.4-1.2.1-.9 1.4zM351.6 326.4c.4 1-.2 1.6-1.8 1.8-1.4.2-2.4 1.1-2.5 2.3-.2 1.1 0 1.4.3.7.3-.6 1.1-1.2 1.8-1.2 1.7 0 4.8-3.5 3.9-4.3-1.2-1.2-2.3-.7-1.7.7zM301.7 363.7c-1.9 6.4-5.7 21.8-5.7 22.8 0 .3.5.3 1 0 .6-.3 1-.1 1 .4 0 .6-.6 1.1-1.4 1.1-.9 0-2.1 2.2-3 5.7-.9 3.2-2.1 7.5-2.6 9.5-.6 2-1.5 4-2 4.3-.5.3-.6 1.5 0 2.8.4 1.2 1.1 3 1.4 4.1 1.4 4.1 5.8-5 8.5-17.4.7-3 1.9-8.3 2.7-11.8.8-3.4 1.2-7.1.9-8.2-.3-1-.1-5.6.5-10.1.6-4.4.9-8.3.7-8.5-.2-.2-1.1 2.2-2 5.3zm-5.3 32.1c-.4 1.8-1 3.2-1.4 3.2-.5 0-.3-1.6.3-3.5 1.3-4.2 2-4 1.1.3zm-2.3 9.5c-1.6 1.6-2 .5-.8-2.3.9-2.2 1.1-2.3 1.4-.6.3 1 0 2.3-.6 2.9zm-2.1 3.9c0 .9.4.8 1.1-.2.9-1.2 1-1.2.7-.1-.6 2.1-2.4 2.5-3.1.6-.4-.8-.2-1.5.3-1.5.6 0 1 .6 1 1.2zM338.3 366.1c-2.3.9-3.2 2.9-1.2 2.9 1.2 0 4.4-2.9 3.8-3.4-.2-.2-1.4 0-2.6.5zM227.6 368.9c-1.4 2.6-1.4 2.9.1 2.7.9 0 2.2 1 2.9 2.2.8 1.7 1.3 2 1.8 1s.7-1 1.2 0c.3.6 1 1 1.5.6 1.6-1 1-2.4-1.1-2.4-1.1 0-2-.7-2-1.5s-.7-1.5-1.5-1.5-1.2-.6-.9-1.4c.3-.8 1.2-1.2 1.9-1 .7.3 1.5.2 1.8-.3.3-.5-.5-1-1.9-1.1-1.7-.1-2.8.6-3.8 2.7zM283.5 368c.3.5 1 1 1.6 1 .5 0 2.3 1.3 4.1 3 3.2 3.1 4.3 3.6 5.1 2.2.3-.4-1.3-1.8-3.4-3.2-2.1-1.3-3.9-2.8-3.9-3.2 0-.4-.9-.8-2.1-.8-1.1 0-1.7.4-1.4 1zM231.3 378.8c-1.4.5-2 1.1-1.5 1.9.6.9 1.5.7 3.7-.7 3-2 2.1-2.4-2.2-1.2zM237.3 379.8c0 1.2.5 2.2.9 2.2 1.1 0 1-1.2-.2-3-.7-1.2-.9-1-.7.8zM293 380c0 .5.5 1 1 1 .6 0 1-.5 1-1 0-.6-.4-1-1-1-.5 0-1 .4-1 1zM206.8 383.5c-.3 2.7-.1 3.2.9 2.3 1.5-1.2 1.8-5.8.4-5.8-.5 0-1.1 1.6-1.3 3.5zM222.4 381.2c-.5.8-.2.9 1 .5 1-.4 2.3-.4 2.9 0 .7.4.4.9-.8 1.3-1 .4-1.4.9-.9 1.3 1.6.9 3.7-.9 3.1-2.7-.7-1.9-4.2-2.1-5.3-.4zM331.5 382c.4 1.1.2 2-.4 2-2 0-1.1 2.9 1 3.5 2.4.8 3.9-.3 2-1.4-.9-.6-1-1.1-.2-1.5.8-.5.8-1.3.1-2.7-1.4-2.5-3.3-2.5-2.5.1zM245.3 381.8c-.6.4-.9 1.8-.8 3.2.1 1.4.3 3.1.4 3.7 0 .7.6 1.3 1.1 1.3.7 0 .8-.6.1-1.7-.5-1.1-.5-2.6 0-4.1 1.1-2.8.9-3.4-.8-2.4zM211.2 383.6c.3 2 5.8 3.1 5.8 1.3 0-.6.5-.7 1-.4.6.3 1 .2 1-.4 0-1.5-1.4-2.1-3-1.1-.8.5-2.2.4-3.3-.2-1.5-.8-1.8-.7-1.5.8zM240.1 384.6c0 1.1.3 1.4.6.6.3-.7.2-1.6-.1-1.9-.3-.4-.6.2-.5 1.3zM195 385.1c0 .5.4.8.9.4.5-.3 1.6.4 2.4 1.5.7 1.1 1.7 1.7 2 1.3.7-.6-3.1-4.3-4.5-4.3-.4 0-.8.5-.8 1.1zM231.7 384.7c-1.4 1.3-.6 3.3 1.9 4.9 2 1.3 2.8 1.4 3.7.5.7-.7.8-1.2.2-1.1-2.6.5-5.2-1.2-4.8-3.1.5-1.9.1-2.4-1-1.2zM221.1 386.6c0 1.1.3 1.4.6.6.3-.7.2-1.6-.1-1.9-.3-.4-.6.2-.5 1.3zM254 385.8c0 .7-.6 1.2-1.4 1.2-.8 0-1.8.4-2.1 1-.9 1.5.8 1.2 3.1-.4 1-.8 1.6-1.8 1.1-2.2-.4-.4-.7-.2-.7.4zM118.4 387.1c-.3.6-.1 1.5.5 1.9.9.5.8 1-.4 2-.8.7-1.5 1.8-1.5 2.4 0 .6.4.5.9-.3 1-1.5 3.1-.7 3.1 1.3 0 .8 1 1.1 3.1.8 2-.3 3-.1 2.5.6-.3.5.1 1.2.9 1.6.9.3 1.5 0 1.5-.9 0-.7-.9-1.7-2-2-1.1-.3-2-1.2-2-1.8 0-2-5.8-6.9-6.6-5.6zM226 388c0 .5.5 1 1 1 .6 0 1-.5 1-1 0-.6-.4-1-1-1-.5 0-1 .4-1 1zM211.5 389.6c-2 1.5-1.2 1.7 1.9.5 1.1-.4 1.5-1 1-1.3-.5-.4-1.8 0-2.9.8zM114.5 390.1c-.4.6-.5 1.3-.2 1.6.7.7 2.7-.6 2.7-1.8 0-1.2-1.7-1.2-2.5.2zM219.2 390.4c-3.6 2.1-3.8 2.7-.4 1.5 1.8-.6 3.5-1.5 3.8-2 .7-1.2-.6-1-3.4.5zM240.6 391.5c.4.8.8 1.5 1 1.5.2 0 .4-.7.4-1.5s-.4-1.5-1-1.5c-.5 0-.7.7-.4 1.5zM210.4 393.5c-2.5 1.9-1.4 1.9 2.2 0 1.6-.8 2.2-1.5 1.3-1.5-.8 0-2.4.7-3.5 1.5zM232.6 392.9c-.4.7-.5 1.5-.2 1.8.9.9 1.9-.4 1.4-1.8-.4-1.1-.6-1.1-1.2 0zM330.3 393.7c-1.9.7-1.6 2 .7 2.6 1.5.4 2 0 2-1.4 0-1.9-.5-2.1-2.7-1.2zM216 395.1c-1.2.9-1.2 1 .3.5 1-.3 2.7-.1 3.8.4 1.4.8 2.4.8 3.7 0 1.6-1.1 1.6-1.1 0-.6-1 .3-2 .1-2.3-.4-.8-1.3-3.6-1.2-5.5.1zM227.6 395.5c-.3.8-.1 1.5.4 1.5 1.3 0 2.2-1.8 1.1-2.4-.5-.3-1.1.1-1.5.9zM247.9 396.1c-1.3 2.6-.6 3.4 1.8 2 1-.6 1.4-1.1.8-1.1-.5 0-.4-.4.3-.9 1.1-.7 1.1-.9-.2-1.4-1-.4-2 .1-2.7 1.4zM117 396c-1.3.9-1.3 1.2.3 2.5 2.7 2 5 .9 3.4-1.6-1.4-2.2-1.6-2.2-3.7-.9zM199.6 397.7c-.6 1.4-.5 1.5.5.6.7-.7 1-1.5.7-1.8-.3-.3-.9.2-1.2 1.2zM323 397c0 .5.7 1 1.5 1s1.5-.5 1.5-1c0-.6-.7-1-1.5-1s-1.5.4-1.5 1zM237 399c0 1.1.4 2 .8 2s.8-.9.9-2c.1-1.1-.2-2-.8-2-.5 0-.9.9-.9 2zM240.7 398.9c.3 1.2.9 2.1 1.4 2.1 1.4 0 1.1-1.6-.5-2.9-1.2-1-1.3-.8-.9.8zM283.6 398.6c-.5 1.4-.4 1.5.9.4 1.7-1.4 1.9-2 .6-2-.5 0-1.2.7-1.5 1.6zM245 399.5c.6.8.8 2 .4 2.7-.5 1-.4 1 .5.2 1.3-1.2.5-4.4-1.1-4.4-.6 0-.5.6.2 1.5zM94.6 400.6c-.3.7.5 1.6 1.7 2 2 .6 3.3-.5 2.5-2.3-.5-1.2-3.7-1-4.2.3zM321 400.8c0 1.2 1.1 2.2 3.3 2.9 2.9.9 3.3.8 3.3-.9 0-1-.5-1.9-1.1-2-.5 0-1.4-.2-2-.2-.5-.1-1.6-.5-2.2-.9-.9-.6-1.3-.2-1.3 1.1zm5 1.2c0 .5-.4 1-1 1-.5 0-1-.5-1-1 0-.6.5-1 1-1 .6 0 1 .4 1 1zM329 399.7c0 .5.4 1.4.9 2.1.6 1 1 .9 1.4-.7.3-1.4 0-2.1-.9-2.1-.8 0-1.4.3-1.4.7zM110.8 401c1.4 1.7 1.6 4 .2 4-.5 0-1-.7-1-1.6 0-2-2.4-1.3-2.8.8-.2 1.1.5 1.5 2.2 1.5 3.9 0 5-2 2.3-4.3-1.2-1-1.6-1.2-.9-.4zM231.5 402c-.3.5-.1 1 .4 1 .6 0 1.1-.5 1.1-1 0-.6-.2-1-.4-1-.3 0-.8.4-1.1 1zM115 403c0 .5.5 1 1 1 .6 0 1-.5 1-1 0-.6-.4-1-1-1-.5 0-1 .4-1 1zM104.4 404.9c.4.5.1 1.2-.4 1.4-.6.3-.5.4.2.3 1.5-.3 2.3-2.6.8-2.6-.6 0-.9.4-.6.9zM215 405c0 .5.5 1 1.1 1 .5 0 .7-.5.4-1-.3-.6-.8-1-1.1-1-.2 0-.4.4-.4 1zM126 406.5c-2.2 1.2-2.3 1.4-.7 2.1 1.4.5 1.7 1.3 1.2 3.4-.6 2.5-.4 2.7 1.9 2.3 2.8-.6 3.4.5 1.4 2.5-.8.8-.8 1.5 0 2.5.7.8 1.4 2.8 1.6 4.5.3 2.8 2.3 5.2 10.5 12.6 1.9 1.7 1.9 1.7 1.3-.6-.6-2.5-2.5-4.8-4-4.8-1.4 0-2.1-3.7-1-4.8.6-.6.6-1.2-.1-1.6-.5-.4-.8-1.3-.5-2.1.4-.8 0-1.7-.8-2-.9-.4-1.3-1.5-1.1-2.9.6-2.8-4.1-7.7-6.5-6.8-1.2.4-1.4-.1-.9-2.6.4-1.8.5-3.2.4-3.2-.1.1-1.3.7-2.7 1.5zM85.5 407.1c-1.1 1.7.1 2.1 1.5.4.8-.9.8-1.5.2-1.5-.6 0-1.4.5-1.7 1.1zM121.8 406.6c-.5.4-.8 2.1-.8 3.8.1 2.6.2 2.8 1.1 1.3 1.1-1.9.8-6.3-.3-5.1zM204.5 407c-.3.5-.2 1 .4 1 .5 0 1.3-.5 1.6-1 .3-.6.2-1-.4-1-.5 0-1.3.4-1.6 1zM247.7 406.7c-.2.4-.7 2.4-1.1 4.3l-.6 3.5 1.5-3.9c1.3-3.5 1.5-6.1.2-3.9zM106 410c0 .5.5 1 1 1 .6 0 1-.5 1-1 0-.6-.4-1-1-1-.5 0-1 .4-1 1zM397.2 411.4c2.8 2.8 12.2 4.7 11.2 2.3-.7-2-5.1-3.9-9.7-4.3l-3.9-.3 2.4 2.3zM102.5 411c.4.6 1.1.8 1.6.5 1.4-.9 1.1-1.5-.7-1.5-.8 0-1.2.5-.9 1zM347.5 411c.3.5.8 1 1.1 1 .2 0 .4-.5.4-1 0-.6-.5-1-1.1-1-.5 0-.7.4-.4 1zM422 412c0 .5.5 1 1 1 .6 0 1-.5 1-1 0-.6-.4-1-1-1-.5 0-1 .4-1 1zM123 414.1c0 .5.5.7 1 .4.6-.3 1-.8 1-1.1 0-.2-.4-.4-1-.4-.5 0-1 .5-1 1.1zM325.1 413.9c-.8.6-.9 1.1-.3 1.5.6.3 1.4.1 1.7-.5.9-1.4.2-2-1.4-1zM347 415c0 .5.7 1 1.5 1s1.5-.5 1.5-1c0-.6-.7-1-1.5-1s-1.5.4-1.5 1zM417 415c0 1 1.6 2 4.5 2.8 5.5 1.5 8.7 1.6 6.6.3-1.1-.7-1-1.1.5-2.1 1.8-1.1 1.8-1.1-.1-.5-4.5 1.6-5.3 1.6-6.8.1-1.1-1.2-1.7-1.3-2-.3-.4.9-.8.8-1.6-.3-.9-1.3-1.1-1.3-1.1 0zM438 417.5c-1.9 1.9-3 3.5-2.4 3.4.9 0 7-6.9 6.2-6.9-.2 0-1.9 1.6-3.8 3.5zM288.5 418.9c-.8 1.4 4.2 5.3 6.5 4.9 2-.3 1.8-.6-1.9-3-2.2-1.5-4.3-2.3-4.6-1.9zM123.7 421.6c.6 1.5 2.3 1.9 2.3.5 0-.5-.7-1.1-1.4-1.4-1-.4-1.3-.1-.9.9zM349.5 422.1c-1.1 1.7.1 2.1 1.5.4.8-.9.8-1.5.2-1.5-.6 0-1.4.5-1.7 1.1zM328.3 435.7c-.7.3-1.3 1.5-1.3 2.7 0 1.9.4 2.2 2.5 1.8 1.4-.2 2.5-.1 2.5.2 0 .4-1.1 1.1-2.5 1.6-3 1.1-3.3 3-.6 3 1.1 0 2.2.6 2.4 1.2.4 1 .8.9 1.7-.2 1-1.3 1.1-1.3.6.2-.4 1.3 0 1.8 1.2 1.8 1.5 0 1.5.2.2 1s-1.3 1 .2 1c1.7 0 2 3.3.4 5.8-.4.7-.1 1.2.9 1.2 2.1 0 3.2-3 1.4-4-1.1-.7-1-1 .4-1.6 1.6-.6 1.5-.9-.8-3-1.4-1.3-2.3-2.4-1.9-2.4.3 0 .1-.7-.6-1.5s-1-2.5-.6-3.8c.4-1.8-.1-2.7-2.2-3.9-1.5-.8-3.3-1.3-3.9-1.1zM339 436c0 .5.5 1 1.1 1 .8 0 .8.5-.1 1.5-1 1.2-1 1.5.3 1.5 1.6 0 3-2.6 2.1-4.1-.7-1.2-3.4-1.1-3.4.1zM120 436.9c0 .6.4 1.3 1 1.6.6.3.7-.1.4-.9-.7-1.8-1.4-2.1-1.4-.7zM145 439.7c0 1.3 9.4 7.8 16.5 11.3 4.2 2.2 5.6 2.4 8.8 1.6 5.2-1.3 4.7-3-.8-2.4-3.1.4-4.8.1-5.6-.8-1.4-1.7.2-1.8 2-.2 1 .9 1.2.9.7.1-.3-.6.2-1.6 1.1-2.2 1.3-.8.3-.9-4.1-.5-6.2.5-11.5-1.4-16.3-5.9-1.3-1.1-2.3-1.6-2.3-1zM280.6 439.9c-.3.5.3 1.1 1.5 1.4 1.6.4 1.8.3.8-.9-1.3-1.6-1.6-1.7-2.3-.5zM122.5 441c.3.5.8 1 1.1 1 .2 0 .4-.5.4-1 0-.6-.5-1-1.1-1-.5 0-.7.4-.4 1zM287 446.4c0 .2.7.9 1.5 1.6 1.3 1.1 1.4 1 .9-.4-.5-1.4-2.4-2.3-2.4-1.2zM326 449.6c-1.4 3.5-1.4 3.4 2 3.4 2.1 0 3-.5 3-1.6s-.6-1.4-2.1-.9c-1.8.6-2 .4-1.4-1.4.9-3-.4-2.6-1.5.5zM282.6 449.6c-.6 1.5-.4 1.5 1.1.3 1-.7 2-1.5 2.2-1.6.2-.2-.3-.3-1.1-.3-.9 0-1.9.7-2.2 1.6zM287.6 450.9c-.4.5 0 1.1.6 1.4 1 .3 1 .7-.1 2-.7 1-.9 1.7-.3 1.7 1.1 0 2.2-2.3 2.2-4.6 0-1.6-1.6-1.9-2.4-.5zM121.5 453.5c1.1.9 3.4 2.3 5 3.1 2.8 1.4 2.9 1.4 1-.1-1.1-.9-3.3-2.3-5-3.1-2.8-1.4-2.9-1.4-1 .1z"/><path d="M331.5 454c-.3.5-.1 1 .4 1 .6 0 1.1.4 1.1 1 0 .5-.8.7-1.7.3-1.2-.3-1 .1.5 1.2 2.8 2.1 3.2 1.8 2.5-1.8-.5-2.8-1.7-3.5-2.8-1.7zM327.7 456.7c-.4.3-.7 1.1-.7 1.7 0 .6.5.5 1.2-.2.6-.6.9-1.4.7-1.7-.3-.3-.9-.2-1.2.2zM279 459c-1.3.8-1.2 1 .3 1 .9 0 1.7-.5 1.7-1 0-1.2-.1-1.2-2 0zM286.5 459c.3.5 1.1 1 1.6 1 .6 0 .7-.5.4-1-.3-.6-1.1-1-1.6-1-.6 0-.7.4-.4 1zM325.4 462.1c0 1.9 1.6 2.1 2.8.4.5-.6 1.2-.5 2 .4 1 1.1 1 1.4.1 1.8-.7.3-1.3.9-1.3 1.4 0 1.6 1.5 1 2.8-1.2 1.1-1.8 1.1-2.3-.5-3.4-2.5-1.9-5.9-1.5-5.9.6zM348 461.1c0 .5-.3.8-.7.6-.5-.3-1.4.1-2.1.9-1.9 2.1.2 1.7 2.9-.6 1.3-1 1.8-1.9 1.2-2-.7 0-1.3.5-1.3 1.1zM340.1 463.3c.2.1 1.3.9 2.4 1.7 1.9 1.4 1.9 1.4.6-.3-.7-.9-1.8-1.7-2.4-1.7-.6 0-.8.1-.6.3zM283 465c0 .5.5 1 1.1 1 .5 0 .7-.5.4-1-.3-.6-.8-1-1.1-1-.2 0-.4.4-.4 1zM287.4 465.1c-.3.6-.2 1.5.4 2.1.6.6 1.1.2 1.5-1.1.5-2.2-.7-2.9-1.9-1zM334.1 465.9c-.9.6-1 1.1-.2 1.5.6.4 1.1.5 1.1.1 0-.3.9-.1 2 .5 1.6.9 2 .8 2-.6 0-1-.3-1.4-.7-1.1-.3.4-1.1.3-1.7-.3-.7-.5-1.8-.5-2.5-.1zM347.5 466c-.3.6.1.7.9.4 1.8-.7 2.1-1.4.7-1.4-.6 0-1.3.4-1.6 1zM325.7 467.9c-.3 1.4-.1 1.8.9 1.4.8-.3 1.4-1.1 1.4-1.9 0-2.1-1.7-1.7-2.3.5zM357 466.7c0 1.4 2 3.9 2 2.6 0-.7.7-1 1.8-.7 1.4.5 1.4.3-.2-1-2.1-1.7-3.6-2.1-3.6-.9zM329 469c0 .7.6 1 1.4.7.8-.3 1.7-.2 2 .4.2.5.3.4.2-.3-.3-1.7-3.6-2.3-3.6-.8zM287.6 476.9c.1 8.8 1.4 11.6 4.7 10.5 1.5-.5 1.9-.3 1.4.9-.7 1.8 1.9 3 7.3 3.3 4.9.2 5 .3 5 1.4 0 .5-1 1-2.2 1-1.2 0-1.9.3-1.5.6.7.7 11.6-1.5 13.7-2.7 1.1-.7.6-.9-1.8-.7-1.8.2-3.6-.2-4-.8-.4-.6-1.5-1.3-2.5-1.7-1.6-.6-1.6-.8.5-3.2 1.6-1.9 2.4-2.2 3.5-1.3 1.1.8 1.2.7.7-.6-.6-1.5-3.4-2.1-8.2-1.7-2.1.2-15.6-9.7-16.4-12-.2-.5-.3 2.6-.2 7zm19.4 13.3c0 1.3-2.3.5-2.8-1-.2-.7.2-1 1.2-.6.9.3 1.6 1.1 1.6 1.6zM348.6 471.2c.3.4.1.8-.4.8-.6 0-1.3.7-1.6 1.6-.3.9-.2 1.2.5.9.5-.4 1.6-.2 2.4.5.9.7 1.5.8 2 0 .3-.5-.1-1-.9-1-.9 0-1.6-.5-1.6-1 0-.6.7-1 1.5-1s1.5-.4 1.5-.8-.9-.8-1.9-.8c-1.1 0-1.7.4-1.5.8zM354.1 472.6c0 1.1.3 1.4.6.6.3-.7.2-1.6-.1-1.9-.3-.4-.6.2-.5 1.3zM342.5 473c.3.5 1.1 1 1.6 1 .6 0 .7-.5.4-1-.3-.6-1.1-1-1.6-1-.6 0-.7.4-.4 1zM338.1 476.4c.7 1.5 1.5 2.3 1.7 1.6.3-.7-.3-1.9-1.3-2.8-1.5-1.6-1.6-1.5-.4 1.2zM354.8 474.7c-2.8.7-2.1 2.1.7 1.5 1.4-.2 2.5-.8 2.5-1.3 0-.9-.4-1-3.2-.2zM328 481c0 .5.5 1 1.1 1 .5 0 .7-.5.4-1-.3-.6-.8-1-1.1-1-.2 0-.4.4-.4 1zM321 484c0 .5.7.7 1.5.4.8-.4 1.5-.8 1.5-1 0-.2-.7-.4-1.5-.4s-1.5.4-1.5 1zM281 487c-.8.5-1 1-.5 1 .6 0 1.7-.5 2.5-1s1.1-1 .5-1c-.5 0-1.7.5-2.5 1zM297 495c-2.4.8-2.3.8.8.9 2 .1 3.1-.3 2.7-.9-.3-.6-.7-1-.8-.9-.1.1-1.3.5-2.7.9zM288.5 496c-2.8.7-2.7.8 1.3.9 2.7.1 4.1-.3 3.7-.9-.7-1.1-.7-1.1-5 0zM229.3 496.7c.9.2 2.3.2 3 0 .6-.3-.1-.5-1.8-.5-1.6 0-2.2.2-1.2.5zM237.8 497.7c.7.3 1.6.2 1.9-.1.4-.3-.2-.6-1.3-.5-1.1 0-1.4.3-.6.6zM275.8 497.7c1.8.2 4.5.2 6 0s0-.4-3.3-.4-4.5.2-2.7.4zM243.8 498.7c.6.2 1.8.2 2.5 0 .6-.3.1-.5-1.3-.5-1.4 0-1.9.2-1.2.5zM259.8 498.7c1.2.2 3 .2 4 0 .9-.3-.1-.5-2.3-.4-2.2 0-3 .2-1.7.4z"/></svg>